STARTFONT 2.1
FONT -FontForge-Libre Bodoni v2002-Regular-R-Normal--21-200-75-75-P-120-ISO10646-1
SIZE 20 75 75
FONTBOUNDINGBOX 41 31 -11 -7
COMMENT "Generated by fontforge, http://fontforge.sourceforge.net"
COMMENT "Copyright \(c\) 2014, Impallari Type \(www.impallari.com\)"
STARTPROPERTIES 39
FOUNDRY "FontForge"
FAMILY_NAME "Libre Bodoni v2002"
WEIGHT_NAME "Regular"
SLANT "R"
SETWIDTH_NAME "Normal"
ADD_STYLE_NAME ""
PIXEL_SIZE 21
POINT_SIZE 200
RESOLUTION_X 75
RESOLUTION_Y 75
SPACING "P"
AVERAGE_WIDTH 120
CHARSET_REGISTRY "ISO10646"
CHARSET_ENCODING "1"
FONTNAME_REGISTRY ""
CHARSET_COLLECTIONS "ISO8859-2 ISO8859-9 ISO8859-4 ISO10646-1"
FONT_NAME "LibreBodoniv2002-Bold"
FACE_NAME "Libre Bodoni v2002 Bold"
COPYRIGHT "Copyright \(c\) 2014, Impallari Type \(www.impallari.com\)"
FONT_VERSION "002.002"
FONT_ASCENT 17
FONT_DESCENT 4
UNDERLINE_POSITION -2
UNDERLINE_THICKNESS 2
X_HEIGHT 9
CAP_HEIGHT 15
RAW_ASCENT 800
RAW_DESCENT 200
NORM_SPACE 3
RELATIVE_WEIGHT 40
RELATIVE_SETWIDTH 50
SUPERSCRIPT_X 0
SUPERSCRIPT_Y 7
SUPERSCRIPT_SIZE 12
SUBSCRIPT_X 0
SUBSCRIPT_Y 1
SUBSCRIPT_SIZE 12
AVG_LOWERCASE_WIDTH 113
AVG_UPPERCASE_WIDTH 155
ENDPROPERTIES
CHARS 633
STARTCHAR CR
ENCODING 13
SWIDTH 160 0
DWIDTH 3 0
BBX 1 1 0 0
BITMAP
00
ENDCHAR
STARTCHAR space
ENCODING 32
SWIDTH 160 0
DWIDTH 3 0
BBX 1 1 0 0
BITMAP
00
ENDCHAR
STARTCHAR exclam
ENCODING 33
SWIDTH 307 0
DWIDTH 6 0
BBX 4 16 1 0
BITMAP
70
F0
F0
70
70
60
60
20
20
20
20
00
60
70
F0
60
ENDCHAR
STARTCHAR quotedbl
ENCODING 34
SWIDTH 447 0
DWIDTH 9 0
BBX 8 8 1 8
BITMAP
E6
EF
EE
66
44
44
44
40
ENDCHAR
STARTCHAR numbersign
ENCODING 35
SWIDTH 546 0
DWIDTH 11 0
BBX 11 16 0 0
BITMAP
08C0
0880
0880
1880
1880
7FE0
1180
1180
1100
3100
FFC0
2100
2100
2300
2200
2200
ENDCHAR
STARTCHAR dollar
ENCODING 36
SWIDTH 594 0
DWIDTH 12 0
BBX 12 19 0 -2
BITMAP
0500
0780
1D60
2520
4570
6570
7500
7F00
3FC0
1FE0
07F0
2570
7530
F510
6510
6520
1FC0
0500
0500
ENDCHAR
STARTCHAR percent
ENCODING 37
SWIDTH 913 0
DWIDTH 19 0
BBX 17 16 1 0
BITMAP
3C0C00
461800
C61800
C73000
C72000
C76000
C64000
66C000
2C9F00
11B180
033180
033180
063180
063180
0C3180
080E00
ENDCHAR
STARTCHAR ampersand
ENCODING 38
SWIDTH 836 0
DWIDTH 18 0
BBX 17 16 0 0
BITMAP
03E000
063800
0E3800
0F3800
0F3000
07CF80
078200
0BC200
31E200
71E400
70F400
F07800
F07800
783C00
7C7C00
3F9F80
ENDCHAR
STARTCHAR quotesingle
ENCODING 39
SWIDTH 244 0
DWIDTH 5 0
BBX 3 8 1 8
BITMAP
E0
E0
E0
60
40
40
40
40
ENDCHAR
STARTCHAR parenleft
ENCODING 40
SWIDTH 309 0
DWIDTH 6 0
BBX 5 20 1 -3
BITMAP
08
10
30
30
60
60
E0
E0
E0
E0
E0
E0
E0
E0
60
60
30
30
10
08
ENDCHAR
STARTCHAR parenright
ENCODING 41
SWIDTH 309 0
DWIDTH 6 0
BBX 6 19 0 -2
BITMAP
80
40
20
30
30
38
18
1C
1C
1C
1C
1C
1C
18
38
30
30
60
40
ENDCHAR
STARTCHAR asterisk
ENCODING 42
SWIDTH 443 0
DWIDTH 9 0
BBX 9 9 0 7
BITMAP
0C00
1C00
EB80
7B80
0C00
7F80
EB80
1C00
0C00
ENDCHAR
STARTCHAR plus
ENCODING 43
SWIDTH 578 0
DWIDTH 12 0
BBX 10 11 1 2
BITMAP
0C00
0C00
0C00
0C00
0C00
FFC0
0C00
0C00
0C00
0C00
0C00
ENDCHAR
STARTCHAR comma
ENCODING 44
SWIDTH 308 0
DWIDTH 6 0
BBX 4 8 1 -4
BITMAP
60
F0
F0
F0
10
10
20
40
ENDCHAR
STARTCHAR hyphen
ENCODING 45
SWIDTH 395 0
DWIDTH 8 0
BBX 6 1 1 4
BITMAP
FC
ENDCHAR
STARTCHAR period
ENCODING 46
SWIDTH 274 0
DWIDTH 6 0
BBX 4 4 1 0
BITMAP
60
F0
F0
60
ENDCHAR
STARTCHAR slash
ENCODING 47
SWIDTH 190 0
DWIDTH 4 0
BBX 5 16 0 0
BITMAP
18
18
18
10
30
30
30
20
60
60
60
40
C0
C0
C0
80
ENDCHAR
STARTCHAR zero
ENCODING 48
SWIDTH 727 0
DWIDTH 15 0
BBX 13 16 1 0
BITMAP
0700
18C0
3060
7070
7078
F078
F038
F038
F038
F038
F078
F078
7070
3070
1860
0F80
ENDCHAR
STARTCHAR one
ENCODING 49
SWIDTH 480 0
DWIDTH 10 0
BBX 10 15 0 0
BITMAP
FE00
1E00
1E00
1E00
1E00
1E00
1E00
1E00
1E00
1E00
1E00
1E00
1E00
1E00
FFC0
ENDCHAR
STARTCHAR two
ENCODING 50
SWIDTH 625 0
DWIDTH 13 0
BBX 11 15 1 0
BITMAP
1F00
63C0
81E0
F1E0
F1E0
71E0
01C0
0380
0700
0C00
1820
2020
FFE0
FFE0
FFE0
ENDCHAR
STARTCHAR three
ENCODING 51
SWIDTH 602 0
DWIDTH 13 0
BBX 11 16 1 0
BITMAP
1E00
6380
E3C0
F3C0
63C0
03C0
0700
3C00
0380
01C0
01E0
E1E0
E1E0
E1C0
C380
7E00
ENDCHAR
STARTCHAR four
ENCODING 52
SWIDTH 670 0
DWIDTH 14 0
BBX 13 15 0 0
BITMAP
01C0
03C0
03C0
05C0
09C0
11C0
11C0
21C0
41C0
41C8
FFF8
01C8
01C0
01C0
0FF0
ENDCHAR
STARTCHAR five
ENCODING 53
SWIDTH 620 0
DWIDTH 13 0
BBX 11 16 1 0
BITMAP
0040
7FC0
7FC0
7FC0
4000
4000
7F00
03C0
01E0
01E0
01E0
E1E0
E1E0
E1E0
C3C0
3F00
ENDCHAR
STARTCHAR six
ENCODING 54
SWIDTH 630 0
DWIDTH 13 0
BBX 12 16 1 0
BITMAP
01C0
0600
0C00
3800
3800
7000
7780
F9C0
F0E0
F0E0
E0F0
E0F0
70E0
70E0
31C0
1F00
ENDCHAR
STARTCHAR seven
ENCODING 55
SWIDTH 590 0
DWIDTH 12 0
BBX 11 15 1 0
BITMAP
7FE0
7FE0
7FC0
80C0
8080
0100
0100
0200
0600
0600
0E00
0E00
1E00
1E00
0E00
ENDCHAR
STARTCHAR eight
ENCODING 56
SWIDTH 637 0
DWIDTH 13 0
BBX 12 16 1 0
BITMAP
0F00
71C0
71E0
F0E0
F0E0
71E0
31C0
0E00
31C0
70E0
E0E0
E0F0
E0F0
F0E0
71E0
3F80
ENDCHAR
STARTCHAR nine
ENCODING 57
SWIDTH 630 0
DWIDTH 13 0
BBX 11 16 1 0
BITMAP
0E00
3180
70C0
E0E0
E0E0
E0E0
E0E0
F0E0
71E0
3FE0
01C0
01C0
0380
0700
0C00
7000
ENDCHAR
STARTCHAR colon
ENCODING 58
SWIDTH 274 0
DWIDTH 6 0
BBX 4 10 1 0
BITMAP
60
F0
F0
60
00
00
60
F0
F0
60
ENDCHAR
STARTCHAR semicolon
ENCODING 59
SWIDTH 308 0
DWIDTH 6 0
BBX 4 14 1 -4
BITMAP
60
F0
F0
60
00
00
60
F0
F0
F0
10
10
20
40
ENDCHAR
STARTCHAR less
ENCODING 60
SWIDTH 588 0
DWIDTH 12 0
BBX 10 11 1 2
BITMAP
0040
01C0
0700
1C00
7000
C000
6000
1800
0600
0180
0040
ENDCHAR
STARTCHAR equal
ENCODING 61
SWIDTH 598 0
DWIDTH 13 0
BBX 11 5 1 5
BITMAP
FFE0
0000
0000
0000
FFE0
ENDCHAR
STARTCHAR greater
ENCODING 62
SWIDTH 588 0
DWIDTH 12 0
BBX 10 11 1 2
BITMAP
8000
6000
1800
0600
0180
0040
01C0
0700
1C00
7000
C000
ENDCHAR
STARTCHAR question
ENCODING 63
SWIDTH 470 0
DWIDTH 10 0
BBX 8 16 1 0
BITMAP
3C
C2
E3
E3
47
0F
1E
3C
38
30
20
00
20
70
70
70
ENDCHAR
STARTCHAR at
ENCODING 64
SWIDTH 835 0
DWIDTH 18 0
BBX 15 17 1 -3
BITMAP
03E0
0C18
1004
2006
43BA
4672
4E72
8C72
9C72
9C62
9CE4
9CE8
4F70
4000
2018
3020
0FC0
ENDCHAR
STARTCHAR A
ENCODING 65
SWIDTH 715 0
DWIDTH 15 0
BBX 15 16 0 0
BITMAP
0100
0180
0180
03C0
03C0
05C0
05E0
09E0
08E0
08F0
10F0
1FF0
2078
2038
203C
F8FE
ENDCHAR
STARTCHAR B
ENCODING 66
SWIDTH 751 0
DWIDTH 16 0
BBX 14 16 1 0
BITMAP
FFE0
3870
3838
3838
3838
3838
3870
3FC0
3870
3838
383C
383C
383C
3838
3878
FFE0
ENDCHAR
STARTCHAR C
ENCODING 67
SWIDTH 711 0
DWIDTH 15 0
BBX 13 16 1 0
BITMAP
07C8
1C38
3818
7808
7008
F000
F000
F000
F000
F000
F000
7008
7008
3818
1838
07C8
ENDCHAR
STARTCHAR D
ENCODING 68
SWIDTH 798 0
DWIDTH 17 0
BBX 16 16 0 0
BITMAP
FFE0
3C18
3C1C
3C0E
3C0E
3C0F
3C0F
3C0F
3C0F
3C0F
3C0F
3C0E
3C0E
3C1C
3C18
FFE0
ENDCHAR
STARTCHAR E
ENCODING 69
SWIDTH 696 0
DWIDTH 15 0
BBX 14 16 0 0
BITMAP
FFFC
3C0C
3C0C
3C04
3C00
3C40
3C40
3CC0
3FC0
3C40
3C40
3C44
3C04
3C0C
3C0C
FFFC
ENDCHAR
STARTCHAR F
ENCODING 70
SWIDTH 702 0
DWIDTH 15 0
BBX 14 16 0 0
BITMAP
FFFC
3C1C
3C0C
3C04
3C04
3C40
3C40
3CC0
3FC0
3C40
3C40
3C40
3C00
3C00
3C00
FF00
ENDCHAR
STARTCHAR G
ENCODING 71
SWIDTH 790 0
DWIDTH 17 0
BBX 15 16 1 0
BITMAP
07C8
1C38
3818
3808
7008
7000
F000
F000
F000
F000
F0FE
703C
703C
3838
1870
07C0
ENDCHAR
STARTCHAR H
ENCODING 72
SWIDTH 826 0
DWIDTH 17 0
BBX 17 16 0 0
BITMAP
FF3F80
3C0E00
3C0E00
3C0E00
3C0E00
3C0E00
3C0E00
3FFE00
3C0E00
3C0E00
3C0E00
3C0E00
3C0E00
3C0E00
3C0E00
FF3F80
ENDCHAR
STARTCHAR I
ENCODING 73
SWIDTH 386 0
DWIDTH 8 0
BBX 8 16 0 0
BITMAP
FF
3C
3C
3C
3C
3C
3C
3C
3C
3C
3C
3C
3C
3C
3C
FF
ENDCHAR
STARTCHAR J
ENCODING 74
SWIDTH 386 0
DWIDTH 8 0
BBX 10 18 -2 -2
BITMAP
3FC0
0F00
0F00
0F00
0F00
0F00
0F00
0F00
0F00
0F00
0F00
0F00
0F00
0F00
EF00
EE00
EE00
7800
ENDCHAR
STARTCHAR K
ENCODING 75
SWIDTH 811 0
DWIDTH 17 0
BBX 17 16 0 0
BITMAP
FF3F00
3C0800
3C1000
3C2000
3C4000
3C8000
3DC000
3FC000
3DE000
3DF000
3CF000
3C7800
3C3C00
3C3C00
3C1E00
FF7F80
ENDCHAR
STARTCHAR L
ENCODING 76
SWIDTH 681 0
DWIDTH 14 0
BBX 14 16 0 0
BITMAP
FF00
3C00
3C00
3C00
3C00
3C00
3C00
3C00
3C00
3C00
3C00
3C04
3C04
3C0C
3C0C
FFFC
ENDCHAR
STARTCHAR M
ENCODING 77
SWIDTH 927 0
DWIDTH 19 0
BBX 19 16 0 0
BITMAP
FE07E0
1F0780
1F0B80
1F0B80
170B80
179380
179380
139380
13E380
13E380
11E380
11C380
11C380
11C380
10C380
FC9FE0
ENDCHAR
STARTCHAR N
ENCODING 78
SWIDTH 791 0
DWIDTH 17 0
BBX 16 16 0 0
BITMAP
FE1F
1F04
1F04
1F84
17C4
13C4
11E4
11F4
10FC
107C
107C
103C
101C
101C
100C
FC04
ENDCHAR
STARTCHAR O
ENCODING 79
SWIDTH 823 0
DWIDTH 17 0
BBX 15 16 1 0
BITMAP
07C0
1830
3018
701C
701E
F01E
F01E
F01E
F01E
F01E
F01E
701E
701C
3818
1830
07C0
ENDCHAR
STARTCHAR P
ENCODING 80
SWIDTH 700 0
DWIDTH 15 0
BBX 15 16 0 0
BITMAP
FFF0
3C38
3C3C
3C1E
3C1E
3C1C
3C3C
3C38
3FC0
3C00
3C00
3C00
3C00
3C00
3C00
FF00
ENDCHAR
STARTCHAR Q
ENCODING 81
SWIDTH 823 0
DWIDTH 17 0
BBX 15 21 1 -5
BITMAP
07C0
1830
3818
701C
701E
F01E
F01E
F01E
F01E
F01E
F01E
701E
701C
3018
1830
0E60
03C0
03C0
03C0
01E0
007C
ENDCHAR
STARTCHAR R
ENCODING 82
SWIDTH 740 0
DWIDTH 16 0
BBX 16 16 0 0
BITMAP
FFF0
3C38
3C3C
3C3C
3C3C
3C3C
3C78
3FC0
3C70
3C78
3C78
3C3C
3C3C
3C3C
3C3C
FF1F
ENDCHAR
STARTCHAR S
ENCODING 83
SWIDTH 569 0
DWIDTH 12 0
BBX 10 16 1 0
BITMAP
3E40
41C0
C0C0
C040
C000
FC00
FF00
7F80
3FC0
0FC0
00C0
0040
8040
8040
C080
BF00
ENDCHAR
STARTCHAR T
ENCODING 84
SWIDTH 724 0
DWIDTH 15 0
BBX 15 16 0 0
BITMAP
FFFE
E386
C386
8382
8382
0380
0380
0380
0380
0380
0380
0380
0380
0380
0380
1FF0
ENDCHAR
STARTCHAR U
ENCODING 85
SWIDTH 774 0
DWIDTH 16 0
BBX 16 16 0 0
BITMAP
FF1F
3C04
3C04
3C04
3C04
3C04
3C04
3C04
3C04
3C04
3C04
3C04
3C04
1C04
1E08
07F0
ENDCHAR
STARTCHAR V
ENCODING 86
SWIDTH 667 0
DWIDTH 14 0
BBX 15 16 -1 0
BITMAP
FE1E
3C04
1C08
1E08
0E08
0F10
0F10
0720
07A0
07A0
03C0
03C0
03C0
0180
0180
0100
ENDCHAR
STARTCHAR W
ENCODING 87
SWIDTH 1019 0
DWIDTH 21 0
BBX 22 16 0 0
BITMAP
FFFF7C
38F410
3C7420
3C7C20
1C7820
1E3840
1E3C40
0F1C80
0F3C80
073E80
07CF00
07CF00
038F00
038600
018600
010400
ENDCHAR
STARTCHAR X
ENCODING 88
SWIDTH 719 0
DWIDTH 15 0
BBX 15 16 0 0
BITMAP
FE7C
3C10
3C20
1E40
1E40
0F80
0780
0780
03C0
03C0
05E0
08F0
10F0
1078
2078
F8FE
ENDCHAR
STARTCHAR Y
ENCODING 89
SWIDTH 766 0
DWIDTH 16 0
BBX 16 16 0 0
BITMAP
FF1F
3C04
1E08
1E08
0F10
0790
07A0
03E0
03C0
01C0
01C0
01C0
01C0
01C0
01C0
0FF0
ENDCHAR
STARTCHAR Z
ENCODING 90
SWIDTH 621 0
DWIDTH 13 0
BBX 13 16 0 0
BITMAP
7FF8
60F8
60F0
41E0
01E0
03C0
0780
0780
0F00
0F00
1E00
3C08
3C08
7818
7838
FFF8
ENDCHAR
STARTCHAR bracketleft
ENCODING 91
SWIDTH 319 0
DWIDTH 7 0
BBX 5 20 2 -3
BITMAP
F8
E0
E0
E0
E0
E0
E0
E0
E0
E0
E0
E0
E0
E0
E0
E0
E0
E0
E0
F8
ENDCHAR
STARTCHAR backslash
ENCODING 92
SWIDTH 149 0
DWIDTH 3 0
BBX 5 16 -1 0
BITMAP
80
C0
C0
40
40
60
60
20
20
30
30
10
10
18
18
08
ENDCHAR
STARTCHAR bracketright
ENCODING 93
SWIDTH 319 0
DWIDTH 7 0
BBX 5 20 0 -3
BITMAP
F8
38
38
38
38
38
38
38
38
38
38
38
38
38
38
38
38
38
38
F8
ENDCHAR
STARTCHAR asciicircum
ENCODING 94
SWIDTH 501 0
DWIDTH 11 0
BBX 10 10 0 4
BITMAP
0400
0C00
0E00
1A00
1300
3100
2180
6080
40C0
C040
ENDCHAR
STARTCHAR underscore
ENCODING 95
SWIDTH 584 0
DWIDTH 12 0
BBX 12 1 0 -3
BITMAP
FFF0
ENDCHAR
STARTCHAR grave
ENCODING 96
SWIDTH 268 0
DWIDTH 6 0
BBX 5 4 0 12
BITMAP
E0
E0
70
18
ENDCHAR
STARTCHAR a
ENCODING 97
SWIDTH 541 0
DWIDTH 11 0
BBX 10 10 1 0
BITMAP
3E00
6300
6380
6380
0F80
7380
E380
E380
E780
7BC0
ENDCHAR
STARTCHAR b
ENCODING 98
SWIDTH 630 0
DWIDTH 13 0
BBX 12 16 0 0
BITMAP
F800
3800
3800
3800
3800
3800
3BC0
3C60
3870
3870
3870
3870
3870
3870
3C60
FBC0
ENDCHAR
STARTCHAR c
ENCODING 99
SWIDTH 520 0
DWIDTH 11 0
BBX 9 10 1 0
BITMAP
1E00
7380
6380
E380
E000
E000
E000
6080
3100
1E00
ENDCHAR
STARTCHAR d
ENCODING 100
SWIDTH 631 0
DWIDTH 13 0
BBX 12 16 1 0
BITMAP
07C0
01C0
01C0
01C0
01C0
01C0
3DC0
73C0
61C0
E1C0
E1C0
E1C0
E1C0
E1C0
73C0
3DF0
ENDCHAR
STARTCHAR e
ENCODING 101
SWIDTH 537 0
DWIDTH 11 0
BBX 9 10 1 0
BITMAP
1E00
7380
6180
E180
FF80
E000
E000
6080
7080
1F00
ENDCHAR
STARTCHAR f
ENCODING 102
SWIDTH 346 0
DWIDTH 7 0
BBX 10 16 0 0
BITMAP
0780
0980
19C0
1800
3800
3800
3800
FE00
3800
3800
3800
3800
3800
3800
3800
FE00
ENDCHAR
STARTCHAR g
ENCODING 103
SWIDTH 565 0
DWIDTH 12 0
BBX 11 17 1 -7
BITMAP
3E60
73E0
6380
E380
6380
7300
3E00
C000
8000
FF80
FFC0
20C0
C040
C040
C0C0
E180
3E00
ENDCHAR
STARTCHAR h
ENCODING 104
SWIDTH 619 0
DWIDTH 13 0
BBX 13 16 0 0
BITMAP
F800
3800
3800
3800
3800
3800
3BC0
3CE0
3CE0
38E0
38E0
38E0
38E0
38E0
38E0
FDF8
ENDCHAR
STARTCHAR i
ENCODING 105
SWIDTH 319 0
DWIDTH 7 0
BBX 6 16 0 0
BITMAP
38
38
38
00
00
00
F8
38
38
38
38
38
38
38
38
FC
ENDCHAR
STARTCHAR j
ENCODING 106
SWIDTH 318 0
DWIDTH 7 0
BBX 7 23 -2 -7
BITMAP
0E
0E
0E
00
00
00
3E
0E
0E
0E
0E
0E
0E
0E
0E
0E
0E
0E
0E
4E
EC
EC
78
ENDCHAR
STARTCHAR k
ENCODING 107
SWIDTH 618 0
DWIDTH 13 0
BBX 13 16 0 0
BITMAP
F800
3800
3800
3800
3800
3800
39F0
3880
3900
3B00
3F80
3B80
39C0
39E0
38E0
FDF8
ENDCHAR
STARTCHAR l
ENCODING 108
SWIDTH 329 0
DWIDTH 7 0
BBX 7 16 0 0
BITMAP
F8
38
38
38
38
38
38
38
38
38
38
38
38
38
38
FE
ENDCHAR
STARTCHAR m
ENCODING 109
SWIDTH 910 0
DWIDTH 19 0
BBX 19 10 0 0
BITMAP
FBC700
3CFB80
3CF180
38E180
38E180
38E180
38E180
38E180
38E180
FDFFE0
ENDCHAR
STARTCHAR n
ENCODING 110
SWIDTH 614 0
DWIDTH 13 0
BBX 13 10 0 0
BITMAP
FBC0
3CE0
3CE0
38E0
38E0
38E0
38E0
38E0
38E0
FDF8
ENDCHAR
STARTCHAR o
ENCODING 111
SWIDTH 589 0
DWIDTH 12 0
BBX 10 10 1 0
BITMAP
1F00
7180
61C0
E1C0
E1C0
E1C0
E1C0
61C0
7180
1F00
ENDCHAR
STARTCHAR p
ENCODING 112
SWIDTH 635 0
DWIDTH 13 0
BBX 12 17 0 -7
BITMAP
FBC0
3C60
3870
3870
3870
3870
3870
3870
3C60
3BC0
3800
3800
3800
3800
3800
3800
7E00
ENDCHAR
STARTCHAR q
ENCODING 113
SWIDTH 621 0
DWIDTH 13 0
BBX 12 17 1 -7
BITMAP
3DF0
73C0
E1C0
E1C0
E1C0
E1C0
E1C0
E1C0
73C0
3DC0
01C0
01C0
01C0
01C0
01C0
01C0
07F0
ENDCHAR
STARTCHAR r
ENCODING 114
SWIDTH 506 0
DWIDTH 11 0
BBX 10 10 0 0
BITMAP
FB80
3DC0
3DC0
3880
3800
3800
3800
3800
3800
FC00
ENDCHAR
STARTCHAR s
ENCODING 115
SWIDTH 429 0
DWIDTH 9 0
BBX 7 10 1 0
BITMAP
7E
C6
C2
F0
FC
7E
1E
82
82
FC
ENDCHAR
STARTCHAR t
ENCODING 116
SWIDTH 354 0
DWIDTH 7 0
BBX 7 14 0 0
BITMAP
08
18
18
38
FE
38
38
38
38
38
38
38
3A
3E
ENDCHAR
STARTCHAR u
ENCODING 117
SWIDTH 613 0
DWIDTH 13 0
BBX 13 10 0 0
BITMAP
FBE0
38E0
38E0
38E0
38E0
38E0
38E0
38E0
39E0
1EF8
ENDCHAR
STARTCHAR v
ENCODING 118
SWIDTH 491 0
DWIDTH 10 0
BBX 11 10 0 0
BITMAP
F9E0
7080
3880
3900
1D00
1E00
1E00
0C00
0C00
0400
ENDCHAR
STARTCHAR w
ENCODING 119
SWIDTH 690 0
DWIDTH 14 0
BBX 15 10 0 0
BITMAP
F89E
7188
39C8
39D0
3BD0
1EF0
1CE0
1C60
0860
0800
ENDCHAR
STARTCHAR x
ENCODING 120
SWIDTH 578 0
DWIDTH 12 0
BBX 12 10 0 0
BITMAP
FCF0
3C40
1C80
1F00
0F00
0700
0F80
13C0
21C0
F3F0
ENDCHAR
STARTCHAR y
ENCODING 121
SWIDTH 501 0
DWIDTH 11 0
BBX 11 17 0 -7
BITMAP
FDE0
7080
3880
3900
1D00
1D00
1E00
0E00
0C00
0400
0400
0800
0800
1000
D000
F000
E000
ENDCHAR
STARTCHAR z
ENCODING 122
SWIDTH 476 0
DWIDTH 10 0
BBX 8 10 1 0
BITMAP
FF
C7
8E
9E
1C
38
79
71
E1
FF
ENDCHAR
STARTCHAR braceleft
ENCODING 123
SWIDTH 300 0
DWIDTH 6 0
BBX 6 20 0 -3
BITMAP
0C
38
30
30
30
30
30
30
70
E0
70
30
30
30
30
30
30
30
38
0C
ENDCHAR
STARTCHAR bar
ENCODING 124
SWIDTH 367 0
DWIDTH 8 0
BBX 2 19 3 -3
BITMAP
C0
C0
C0
C0
C0
C0
C0
C0
C0
C0
C0
C0
C0
C0
C0
C0
C0
C0
C0
ENDCHAR
STARTCHAR braceright
ENCODING 125
SWIDTH 300 0
DWIDTH 6 0
BBX 6 20 0 -3
BITMAP
C0
70
38
38
38
38
38
38
38
1C
38
38
38
38
38
38
38
38
70
C0
ENDCHAR
STARTCHAR asciitilde
ENCODING 126
SWIDTH 475 0
DWIDTH 10 0
BBX 10 2 0 5
BITMAP
7CC0
CF80
ENDCHAR
STARTCHAR uni00A0
ENCODING 160
SWIDTH 160 0
DWIDTH 3 0
BBX 1 1 0 0
BITMAP
00
ENDCHAR
STARTCHAR exclamdown
ENCODING 161
SWIDTH 307 0
DWIDTH 6 0
BBX 4 17 1 -7
BITMAP
60
F0
F0
60
00
20
20
20
20
20
60
60
70
70
F0
F0
70
ENDCHAR
STARTCHAR cent
ENCODING 162
SWIDTH 520 0
DWIDTH 11 0
BBX 9 14 1 1
BITMAP
0800
0800
0C00
3B00
6B80
EB80
E800
E800
E800
6880
7900
1E00
0800
0800
ENDCHAR
STARTCHAR sterling
ENCODING 163
SWIDTH 559 0
DWIDTH 12 0
BBX 11 17 0 -1
BITMAP
0380
0C40
1C20
1C60
1C60
3C00
3C00
3C00
7F80
1C00
1C00
0C00
0C20
7C20
8FE0
9BC0
6000
ENDCHAR
STARTCHAR currency
ENCODING 164
SWIDTH 669 0
DWIDTH 14 0
BBX 10 10 2 3
BITMAP
0C00
FFC0
6180
C0C0
C0C0
C0C0
C0C0
6180
7FC0
DEC0
ENDCHAR
STARTCHAR yen
ENCODING 165
SWIDTH 766 0
DWIDTH 16 0
BBX 16 16 0 0
BITMAP
FF1F
3C04
1E08
1E08
0F10
0790
07A0
03E0
1FF8
01C0
01C0
1FF8
01C0
01C0
01C0
0FF0
ENDCHAR
STARTCHAR brokenbar
ENCODING 166
SWIDTH 367 0
DWIDTH 8 0
BBX 2 19 3 -3
BITMAP
C0
C0
C0
C0
C0
C0
C0
C0
C0
00
00
C0
C0
C0
C0
C0
C0
C0
C0
ENDCHAR
STARTCHAR section
ENCODING 167
SWIDTH 499 0
DWIDTH 10 0
BBX 9 20 1 -4
BITMAP
3C00
6200
4700
6200
7000
7800
7E00
DF00
CF00
C780
F380
F980
7D00
3E00
1E00
0700
6300
6300
4200
3C00
ENDCHAR
STARTCHAR dieresis
ENCODING 168
SWIDTH 342 0
DWIDTH 7 0
BBX 7 3 0 13
BITMAP
44
EE
66
ENDCHAR
STARTCHAR copyright
ENCODING 169
SWIDTH 833 0
DWIDTH 18 0
BBX 16 16 1 0
BITMAP
07E0
1830
3008
63E4
4E22
8C22
9C03
9C01
9C01
9C03
8C22
4622
41C4
200C
1830
07E0
ENDCHAR
STARTCHAR ordfeminine
ENCODING 170
SWIDTH 336 0
DWIDTH 7 0
BBX 7 6 0 10
BITMAP
78
4C
4C
7C
CC
7E
ENDCHAR
STARTCHAR guillemotleft
ENCODING 171
SWIDTH 508 0
DWIDTH 11 0
BBX 8 8 1 1
BITMAP
11
33
66
EE
EE
66
33
11
ENDCHAR
STARTCHAR logicalnot
ENCODING 172
SWIDTH 538 0
DWIDTH 11 0
BBX 11 6 0 1
BITMAP
FFE0
0060
0060
0060
0060
0060
ENDCHAR
STARTCHAR uni00AD
ENCODING 173
SWIDTH 395 0
DWIDTH 8 0
BBX 6 1 1 4
BITMAP
FC
ENDCHAR
STARTCHAR registered
ENCODING 174
SWIDTH 537 0
DWIDTH 11 0
BBX 9 10 1 7
BITMAP
1C00
2300
4080
9E80
9680
9E80
9680
9680
4100
3E00
ENDCHAR
STARTCHAR macron
ENCODING 175
SWIDTH 360 0
DWIDTH 8 0
BBX 7 2 0 13
BITMAP
FE
FE
ENDCHAR
STARTCHAR degree
ENCODING 176
SWIDTH 363 0
DWIDTH 8 0
BBX 6 6 1 10
BITMAP
78
CC
84
84
CC
78
ENDCHAR
STARTCHAR plusminus
ENCODING 177
SWIDTH 578 0
DWIDTH 12 0
BBX 10 14 1 1
BITMAP
0C00
0C00
0C00
0C00
0C00
FFC0
0C00
0C00
0C00
0C00
0C00
0000
0000
FFC0
ENDCHAR
STARTCHAR uni00B2
ENCODING 178
SWIDTH 360 0
DWIDTH 8 0
BBX 7 8 0 10
BITMAP
3C
66
66
0C
18
20
7E
FE
ENDCHAR
STARTCHAR uni00B3
ENCODING 179
SWIDTH 346 0
DWIDTH 7 0
BBX 7 8 0 10
BITMAP
7C
6C
0C
18
0C
4E
CE
FC
ENDCHAR
STARTCHAR acute
ENCODING 180
SWIDTH 268 0
DWIDTH 6 0
BBX 4 4 1 12
BITMAP
30
70
60
C0
ENDCHAR
STARTCHAR uni00B5
ENCODING 181
SWIDTH 613 0
DWIDTH 13 0
BBX 13 16 0 -6
BITMAP
FBE0
38E0
38E0
38E0
38E0
38E0
38E0
38E0
39E0
3EF8
2000
6000
6000
7000
7000
2000
ENDCHAR
STARTCHAR paragraph
ENCODING 182
SWIDTH 633 0
DWIDTH 13 0
BBX 13 19 0 -3
BITMAP
1FF8
3FF8
7E60
7E60
FE60
FE60
7E60
7E60
1E60
0660
0660
0660
0660
0660
0660
0660
0660
0660
0660
ENDCHAR
STARTCHAR periodcentered
ENCODING 183
SWIDTH 274 0
DWIDTH 6 0
BBX 4 4 1 3
BITMAP
60
F0
F0
60
ENDCHAR
STARTCHAR cedilla
ENCODING 184
SWIDTH 250 0
DWIDTH 5 0
BBX 5 5 0 -5
BITMAP
20
70
18
18
F0
ENDCHAR
STARTCHAR uni00B9
ENCODING 185
SWIDTH 279 0
DWIDTH 6 0
BBX 4 8 1 10
BITMAP
E0
60
60
60
60
60
60
F0
ENDCHAR
STARTCHAR ordmasculine
ENCODING 186
SWIDTH 338 0
DWIDTH 7 0
BBX 7 7 0 9
BITMAP
38
64
C6
C6
C6
6C
10
ENDCHAR
STARTCHAR guillemotright
ENCODING 187
SWIDTH 508 0
DWIDTH 11 0
BBX 9 8 1 1
BITMAP
8800
4400
7600
3B80
3B80
7700
4400
8800
ENDCHAR
STARTCHAR onequarter
ENCODING 188
SWIDTH 913 0
DWIDTH 19 0
BBX 15 16 3 0
BITMAP
E030
E060
E060
E0C0
E080
E180
E100
E318
0238
0658
0498
0C98
191A
18FE
301A
3038
ENDCHAR
STARTCHAR onehalf
ENCODING 189
SWIDTH 913 0
DWIDTH 19 0
BBX 15 16 3 0
BITMAP
E030
E060
E060
E0C0
E080
E180
E100
E310
02EC
06EE
046C
0C0C
1810
1822
30FE
30FE
ENDCHAR
STARTCHAR threequarters
ENCODING 190
SWIDTH 913 0
DWIDTH 19 0
BBX 16 16 2 0
BITMAP
7818
DC10
1C30
3020
1860
8CC0
CCC0
998C
611C
032C
024C
064C
048D
0C7F
080D
181C
ENDCHAR
STARTCHAR questiondown
ENCODING 191
SWIDTH 470 0
DWIDTH 10 0
BBX 8 17 1 -7
BITMAP
0C
1E
1E
0C
00
04
04
0C
1C
78
78
F0
E2
C7
C7
42
3C
ENDCHAR
STARTCHAR Agrave
ENCODING 192
SWIDTH 715 0
DWIDTH 15 0
BBX 15 21 0 0
BITMAP
0600
0700
03C0
0000
0000
0100
0180
0180
03C0
03C0
05C0
05E0
09E0
08E0
08F0
10F0
1FF0
2078
2038
203C
F8FE
ENDCHAR
STARTCHAR Aacute
ENCODING 193
SWIDTH 715 0
DWIDTH 15 0
BBX 15 20 0 0
BITMAP
00E0
01E0
0700
0000
0100
0180
0180
03C0
03C0
05C0
05E0
09E0
08E0
08F0
10F0
1FF0
2078
2038
203C
F8FE
ENDCHAR
STARTCHAR Acircumflex
ENCODING 194
SWIDTH 715 0
DWIDTH 15 0
BBX 15 20 0 0
BITMAP
0180
03E0
0400
0000
0100
0180
0180
03C0
03C0
05C0
05E0
09E0
08E0
08F0
10F0
1FF0
2078
2038
203C
F8FE
ENDCHAR
STARTCHAR Atilde
ENCODING 195
SWIDTH 715 0
DWIDTH 15 0
BBX 15 21 0 0
BITMAP
0710
0FF0
08E0
0000
0000
0100
0180
0180
03C0
03C0
05C0
05E0
09E0
08E0
08F0
10F0
1FF0
2078
2038
203C
F8FE
ENDCHAR
STARTCHAR Adieresis
ENCODING 196
SWIDTH 715 0
DWIDTH 15 0
BBX 15 20 0 0
BITMAP
0660
0660
0660
0000
0100
0180
0180
03C0
03C0
05C0
05E0
09E0
08E0
08F0
10F0
1FF0
2078
2038
203C
F8FE
ENDCHAR
STARTCHAR Aring
ENCODING 197
SWIDTH 715 0
DWIDTH 15 0
BBX 15 21 0 0
BITMAP
0180
0240
0240
0180
0000
0100
0180
0180
03C0
03C0
05C0
05E0
09E0
08E0
08F0
10F0
1FF0
2078
2038
203C
F8FE
ENDCHAR
STARTCHAR AE
ENCODING 198
SWIDTH 1131 0
DWIDTH 24 0
BBX 23 16 0 0
BITMAP
00FFFE
004E06
004E06
008E02
008E00
010E00
010E20
020E60
020FE0
040E20
07FE20
080E02
080E02
100E06
100E06
F83FFE
ENDCHAR
STARTCHAR Ccedilla
ENCODING 199
SWIDTH 711 0
DWIDTH 15 0
BBX 13 21 1 -5
BITMAP
07C8
1C38
3818
7808
7008
F000
F000
F000
F000
F000
F000
7008
7008
3818
1838
07C8
0100
03C0
00C0
00C0
0780
ENDCHAR
STARTCHAR Egrave
ENCODING 200
SWIDTH 696 0
DWIDTH 15 0
BBX 14 21 0 0
BITMAP
0C00
0F00
0380
0040
0000
FFFC
3C0C
3C0C
3C04
3C00
3C40
3C40
3CC0
3FC0
3C40
3C40
3C44
3C04
3C0C
3C0C
FFFC
ENDCHAR
STARTCHAR Eacute
ENCODING 201
SWIDTH 696 0
DWIDTH 15 0
BBX 14 20 0 0
BITMAP
01C0
03C0
0C00
0000
FFFC
3C0C
3C0C
3C04
3C00
3C40
3C40
3CC0
3FC0
3C40
3C40
3C44
3C04
3C0C
3C0C
FFFC
ENDCHAR
STARTCHAR Ecircumflex
ENCODING 202
SWIDTH 696 0
DWIDTH 15 0
BBX 14 20 0 0
BITMAP
0380
07C0
0800
0000
FFFC
3C0C
3C0C
3C04
3C00
3C40
3C40
3CC0
3FC0
3C40
3C40
3C44
3C04
3C0C
3C0C
FFFC
ENDCHAR
STARTCHAR Edieresis
ENCODING 203
SWIDTH 696 0
DWIDTH 15 0
BBX 14 20 0 0
BITMAP
0440
0EE0
0CC0
0000
FFFC
3C0C
3C0C
3C04
3C00
3C40
3C40
3CC0
3FC0
3C40
3C40
3C44
3C04
3C0C
3C0C
FFFC
ENDCHAR
STARTCHAR Igrave
ENCODING 204
SWIDTH 386 0
DWIDTH 8 0
BBX 8 21 0 0
BITMAP
60
78
1C
00
00
FF
3C
3C
3C
3C
3C
3C
3C
3C
3C
3C
3C
3C
3C
3C
FF
ENDCHAR
STARTCHAR Iacute
ENCODING 205
SWIDTH 386 0
DWIDTH 8 0
BBX 8 20 0 0
BITMAP
0E
1E
60
00
FF
3C
3C
3C
3C
3C
3C
3C
3C
3C
3C
3C
3C
3C
3C
FF
ENDCHAR
STARTCHAR Icircumflex
ENCODING 206
SWIDTH 386 0
DWIDTH 8 0
BBX 8 20 0 0
BITMAP
18
3E
40
00
FF
3C
3C
3C
3C
3C
3C
3C
3C
3C
3C
3C
3C
3C
3C
FF
ENDCHAR
STARTCHAR Idieresis
ENCODING 207
SWIDTH 386 0
DWIDTH 8 0
BBX 8 20 0 0
BITMAP
66
66
66
00
FF
3C
3C
3C
3C
3C
3C
3C
3C
3C
3C
3C
3C
3C
3C
FF
ENDCHAR
STARTCHAR Eth
ENCODING 208
SWIDTH 798 0
DWIDTH 17 0
BBX 16 16 0 0
BITMAP
FFE0
3C18
3C1C
3C0E
3C0E
3C0F
3C0F
FF0F
3C0F
3C0F
3C0F
3C0E
3C0E
3C1C
3C18
FFE0
ENDCHAR
STARTCHAR Ntilde
ENCODING 209
SWIDTH 791 0
DWIDTH 17 0
BBX 16 21 0 0
BITMAP
0390
07F0
08E0
0000
0000
FE1F
1F04
1F04
1F84
17C4
13C4
11E4
11F4
10FC
107C
107C
103C
101C
101C
100C
FC04
ENDCHAR
STARTCHAR Ograve
ENCODING 210
SWIDTH 823 0
DWIDTH 17 0
BBX 15 21 1 0
BITMAP
0400
0700
03C0
0000
0000
07C0
1830
3018
701C
701E
F01E
F01E
F01E
F01E
F01E
F01E
701E
701C
3818
1830
07C0
ENDCHAR
STARTCHAR Oacute
ENCODING 211
SWIDTH 823 0
DWIDTH 17 0
BBX 15 20 1 0
BITMAP
00E0
03E0
0600
0000
07C0
1830
3018
701C
701E
F01E
F01E
F01E
F01E
F01E
F01E
701E
701C
3818
1830
07C0
ENDCHAR
STARTCHAR Ocircumflex
ENCODING 212
SWIDTH 823 0
DWIDTH 17 0
BBX 15 20 1 0
BITMAP
0380
07C0
0020
0000
07C0
1830
3018
701C
701E
F01E
F01E
F01E
F01E
F01E
F01E
701E
701C
3818
1830
07C0
ENDCHAR
STARTCHAR Otilde
ENCODING 213
SWIDTH 823 0
DWIDTH 17 0
BBX 15 21 1 0
BITMAP
0710
0FE0
01C0
0000
0000
07C0
1830
3018
701C
701E
F01E
F01E
F01E
F01E
F01E
F01E
701E
701C
3818
1830
07C0
ENDCHAR
STARTCHAR Odieresis
ENCODING 214
SWIDTH 823 0
DWIDTH 17 0
BBX 15 20 1 0
BITMAP
0440
0EE0
0660
0000
07C0
1830
3018
701C
701E
F01E
F01E
F01E
F01E
F01E
F01E
701E
701C
3818
1830
07C0
ENDCHAR
STARTCHAR multiply
ENCODING 215
SWIDTH 578 0
DWIDTH 12 0
BBX 9 9 2 3
BITMAP
8080
C100
6200
3400
1800
1C00
2600
4300
8180
ENDCHAR
STARTCHAR Oslash
ENCODING 216
SWIDTH 823 0
DWIDTH 17 0
BBX 15 18 1 -1
BITMAP
0004
07C8
1838
3018
703C
707E
F05E
F09E
F19E
F11E
F21E
F61E
741E
781C
3818
1830
27C0
6000
ENDCHAR
STARTCHAR Ugrave
ENCODING 217
SWIDTH 774 0
DWIDTH 16 0
BBX 16 21 0 0
BITMAP
0600
0780
01C0
0000
0000
FF1F
3C04
3C04
3C04
3C04
3C04
3C04
3C04
3C04
3C04
3C04
3C04
3C04
1C04
1E08
07F0
ENDCHAR
STARTCHAR Uacute
ENCODING 218
SWIDTH 774 0
DWIDTH 16 0
BBX 16 20 0 0
BITMAP
00E0
01E0
0600
0000
FF1F
3C04
3C04
3C04
3C04
3C04
3C04
3C04
3C04
3C04
3C04
3C04
3C04
1C04
1E08
07F0
ENDCHAR
STARTCHAR Ucircumflex
ENCODING 219
SWIDTH 774 0
DWIDTH 16 0
BBX 16 20 0 0
BITMAP
0180
03E0
0400
0000
FF1F
3C04
3C04
3C04
3C04
3C04
3C04
3C04
3C04
3C04
3C04
3C04
3C04
1C04
1E08
07F0
ENDCHAR
STARTCHAR Udieresis
ENCODING 220
SWIDTH 774 0
DWIDTH 16 0
BBX 16 20 0 0
BITMAP
0330
03B8
0330
0000
FF1F
3C04
3C04
3C04
3C04
3C04
3C04
3C04
3C04
3C04
3C04
3C04
3C04
1C04
1E08
07F0
ENDCHAR
STARTCHAR Yacute
ENCODING 221
SWIDTH 766 0
DWIDTH 16 0
BBX 16 20 0 0
BITMAP
00E0
01E0
0600
0000
FF1F
3C04
1E08
1E08
0F10
0790
07A0
03E0
03C0
01C0
01C0
01C0
01C0
01C0
01C0
0FF0
ENDCHAR
STARTCHAR Thorn
ENCODING 222
SWIDTH 700 0
DWIDTH 15 0
BBX 15 16 0 0
BITMAP
FF00
3C00
3C00
3FE0
3C38
3C3C
3C1C
3C1E
3C1C
3C3C
3C38
3FE0
3C00
3C00
3C00
FF00
ENDCHAR
STARTCHAR germandbls
ENCODING 223
SWIDTH 669 0
DWIDTH 14 0
BBX 13 16 0 0
BITMAP
07C0
1C70
1C70
3C70
3C70
3C60
3DC0
3C70
3C30
3C38
3C38
3C38
3C38
3DB8
3D70
FDE0
ENDCHAR
STARTCHAR agrave
ENCODING 224
SWIDTH 541 0
DWIDTH 11 0
BBX 10 15 1 0
BITMAP
2000
3800
3C00
0200
0000
3E00
6300
6380
6380
0F80
7380
E380
E380
E780
7BC0
ENDCHAR
STARTCHAR aacute
ENCODING 225
SWIDTH 541 0
DWIDTH 11 0
BBX 10 14 1 0
BITMAP
0700
0F00
3800
0000
3E00
6300
6380
6380
0F80
7380
E380
E380
E780
7BC0
ENDCHAR
STARTCHAR acircumflex
ENCODING 226
SWIDTH 541 0
DWIDTH 11 0
BBX 10 13 1 0
BITMAP
1C00
3300
0000
3E00
6300
6380
6380
0F80
7380
E380
E380
E780
7BC0
ENDCHAR
STARTCHAR atilde
ENCODING 227
SWIDTH 541 0
DWIDTH 11 0
BBX 10 15 1 0
BITMAP
3880
7F00
4E00
0000
0000
3E00
6300
6380
6380
0F80
7380
E380
E380
E780
7BC0
ENDCHAR
STARTCHAR adieresis
ENCODING 228
SWIDTH 541 0
DWIDTH 11 0
BBX 10 16 1 0
BITMAP
3300
7700
3300
0000
0000
0000
3E00
6300
6380
6380
0F80
7380
E380
E380
E780
7BC0
ENDCHAR
STARTCHAR aring
ENCODING 229
SWIDTH 541 0
DWIDTH 11 0
BBX 10 16 1 0
BITMAP
1C00
1200
1200
1C00
0000
0000
3E00
6300
6380
6380
0F80
7380
E380
E380
E780
7BC0
ENDCHAR
STARTCHAR ae
ENCODING 230
SWIDTH 796 0
DWIDTH 17 0
BBX 15 10 1 0
BITMAP
3E78
638C
638E
638E
0FFE
7380
E380
E582
E584
7878
ENDCHAR
STARTCHAR ccedilla
ENCODING 231
SWIDTH 520 0
DWIDTH 11 0
BBX 9 14 1 -4
BITMAP
1E00
7300
6380
E380
E000
E000
E000
6080
7100
1E00
0800
1E00
0600
3C00
ENDCHAR
STARTCHAR egrave
ENCODING 232
SWIDTH 537 0
DWIDTH 11 0
BBX 9 15 1 0
BITMAP
2000
3800
3C00
0200
0000
1E00
7380
6180
E180
FF80
E000
E000
6080
7080
1F00
ENDCHAR
STARTCHAR eacute
ENCODING 233
SWIDTH 537 0
DWIDTH 11 0
BBX 9 14 1 0
BITMAP
0700
0F00
3000
0000
1E00
7380
6180
E180
FF80
E000
E000
6080
7080
1F00
ENDCHAR
STARTCHAR ecircumflex
ENCODING 234
SWIDTH 537 0
DWIDTH 11 0
BBX 9 13 1 0
BITMAP
1C00
3300
0000
1E00
7380
6180
E180
FF80
E000
E000
6080
7080
1F00
ENDCHAR
STARTCHAR edieresis
ENCODING 235
SWIDTH 537 0
DWIDTH 11 0
BBX 9 16 1 0
BITMAP
3300
7700
3300
0000
0000
0000
1E00
7380
6180
E180
FF80
E000
E000
6080
7080
1F00
ENDCHAR
STARTCHAR igrave
ENCODING 236
SWIDTH 319 0
DWIDTH 7 0
BBX 6 15 0 0
BITMAP
40
F0
3C
00
00
F8
38
38
38
38
38
38
38
38
FC
ENDCHAR
STARTCHAR iacute
ENCODING 237
SWIDTH 319 0
DWIDTH 7 0
BBX 6 14 0 0
BITMAP
1C
3C
C0
00
F8
38
38
38
38
38
38
38
38
FC
ENDCHAR
STARTCHAR icircumflex
ENCODING 238
SWIDTH 319 0
DWIDTH 7 0
BBX 6 14 0 0
BITMAP
38
7C
80
00
F8
38
38
38
38
38
38
38
38
FC
ENDCHAR
STARTCHAR idieresis
ENCODING 239
SWIDTH 319 0
DWIDTH 7 0
BBX 7 16 0 0
BITMAP
EE
EE
44
00
00
00
F8
38
38
38
38
38
38
38
38
FC
ENDCHAR
STARTCHAR eth
ENCODING 240
SWIDTH 692 0
DWIDTH 15 0
BBX 12 16 1 0
BITMAP
0C00
0370
0180
0FC0
00E0
00E0
0EF0
39F0
70F0
70F0
F070
F070
70E0
70E0
38C0
0F00
ENDCHAR
STARTCHAR ntilde
ENCODING 241
SWIDTH 614 0
DWIDTH 13 0
BBX 13 15 0 0
BITMAP
0E00
1FC0
2380
0000
0000
FBC0
3CE0
3CE0
38E0
38E0
38E0
38E0
38E0
38E0
FDF8
ENDCHAR
STARTCHAR ograve
ENCODING 242
SWIDTH 589 0
DWIDTH 12 0
BBX 10 15 1 0
BITMAP
1000
3800
1E00
0000
0000
1F00
7180
61C0
E1C0
E1C0
E1C0
E1C0
61C0
7180
1F00
ENDCHAR
STARTCHAR oacute
ENCODING 243
SWIDTH 589 0
DWIDTH 12 0
BBX 10 14 1 0
BITMAP
0300
0F00
1800
0000
1F00
7180
61C0
E1C0
E1C0
E1C0
E1C0
61C0
7180
1F00
ENDCHAR
STARTCHAR ocircumflex
ENCODING 244
SWIDTH 589 0
DWIDTH 12 0
BBX 10 13 1 0
BITMAP
1E00
3300
0000
1F00
7180
61C0
E1C0
E1C0
E1C0
E1C0
61C0
7180
1F00
ENDCHAR
STARTCHAR otilde
ENCODING 245
SWIDTH 589 0
DWIDTH 12 0
BBX 10 15 1 0
BITMAP
3C80
3F80
4700
0000
0000
1F00
7180
61C0
E1C0
E1C0
E1C0
E1C0
61C0
7180
1F00
ENDCHAR
STARTCHAR odieresis
ENCODING 246
SWIDTH 589 0
DWIDTH 12 0
BBX 10 16 1 0
BITMAP
1100
3B80
3300
0000
0000
0000
1F00
7180
61C0
E1C0
E1C0
E1C0
E1C0
61C0
7180
1F00
ENDCHAR
STARTCHAR divide
ENCODING 247
SWIDTH 578 0
DWIDTH 12 0
BBX 10 12 1 1
BITMAP
0C00
0E00
0E00
0000
0000
FFC0
0000
0000
0000
0E00
0E00
0C00
ENDCHAR
STARTCHAR oslash
ENCODING 248
SWIDTH 589 0
DWIDTH 12 0
BBX 10 11 1 -1
BITMAP
1FC0
7180
61C0
E3C0
E5C0
E9C0
F9C0
71C0
7180
5F00
8000
ENDCHAR
STARTCHAR ugrave
ENCODING 249
SWIDTH 613 0
DWIDTH 13 0
BBX 13 15 0 0
BITMAP
0C00
1E00
0780
0000
0000
FBE0
38E0
38E0
38E0
38E0
38E0
38E0
38E0
39E0
1EF8
ENDCHAR
STARTCHAR uacute
ENCODING 250
SWIDTH 613 0
DWIDTH 13 0
BBX 13 14 0 0
BITMAP
0180
0780
1800
0000
FBE0
38E0
38E0
38E0
38E0
38E0
38E0
38E0
39E0
1EF8
ENDCHAR
STARTCHAR ucircumflex
ENCODING 251
SWIDTH 613 0
DWIDTH 13 0
BBX 13 14 0 0
BITMAP
0700
0F80
1000
0000
FBE0
38E0
38E0
38E0
38E0
38E0
38E0
38E0
39E0
1EF8
ENDCHAR
STARTCHAR udieresis
ENCODING 252
SWIDTH 613 0
DWIDTH 13 0
BBX 13 16 0 0
BITMAP
0CC0
1DC0
0880
0000
0000
0000
FBE0
38E0
38E0
38E0
38E0
38E0
38E0
38E0
39E0
1EF8
ENDCHAR
STARTCHAR yacute
ENCODING 253
SWIDTH 501 0
DWIDTH 11 0
BBX 11 21 0 -7
BITMAP
0700
0F00
3000
0000
FDE0
7080
3880
3900
1D00
1D00
1E00
0E00
0C00
0400
0400
0800
0800
1000
D000
F000
E000
ENDCHAR
STARTCHAR thorn
ENCODING 254
SWIDTH 630 0
DWIDTH 13 0
BBX 12 23 0 -7
BITMAP
F800
3800
3800
3800
3800
3800
3BC0
3C60
3870
3870
3870
3870
3870
3870
3C60
3BC0
3800
3800
3800
3800
3800
3800
7E00
ENDCHAR
STARTCHAR ydieresis
ENCODING 255
SWIDTH 501 0
DWIDTH 11 0
BBX 11 23 0 -7
BITMAP
3B00
3B80
1100
0000
0000
0000
FDE0
7080
3880
3900
1D00
1D00
1E00
0E00
0C00
0400
0400
0800
0800
1000
D000
F000
E000
ENDCHAR
STARTCHAR Amacron
ENCODING 256
SWIDTH 715 0
DWIDTH 15 0
BBX 15 19 0 0
BITMAP
07F0
07F0
0000
0100
0180
0180
03C0
03C0
05C0
05E0
09E0
08E0
08F0
10F0
1FF0
2078
2038
203C
F8FE
ENDCHAR
STARTCHAR amacron
ENCODING 257
SWIDTH 541 0
DWIDTH 11 0
BBX 10 15 1 0
BITMAP
7F00
7F00
0000
0000
0000
3E00
6300
6380
6380
0F80
7380
E380
E380
E780
7BC0
ENDCHAR
STARTCHAR Abreve
ENCODING 258
SWIDTH 715 0
DWIDTH 15 0
BBX 15 20 0 0
BITMAP
0420
07E0
03C0
0000
0100
0180
0180
03C0
03C0
05C0
05E0
09E0
08E0
08F0
10F0
1FF0
2078
2038
203C
F8FE
ENDCHAR
STARTCHAR abreve
ENCODING 259
SWIDTH 541 0
DWIDTH 11 0
BBX 10 14 1 0
BITMAP
2100
3E00
1C00
0000
3E00
6300
6380
6380
0F80
7380
E380
E380
E780
7BC0
ENDCHAR
STARTCHAR Aogonek
ENCODING 260
SWIDTH 715 0
DWIDTH 15 0
BBX 15 21 0 -5
BITMAP
0100
0180
0180
03C0
03C0
05C0
05E0
09E0
08E0
08F0
10F0
1FF0
2078
2038
203C
F8FE
0030
0060
0040
0040
0070
ENDCHAR
STARTCHAR aogonek
ENCODING 261
SWIDTH 541 0
DWIDTH 11 0
BBX 10 15 1 -5
BITMAP
3E00
6300
6380
6380
0F80
7380
E380
E380
E780
7BC0
0100
0200
0600
0600
0380
ENDCHAR
STARTCHAR Cacute
ENCODING 262
SWIDTH 711 0
DWIDTH 15 0
BBX 13 20 1 0
BITMAP
00E0
03C0
0600
0000
07C8
1C38
3818
7808
7008
F000
F000
F000
F000
F000
F000
7008
7008
3818
1838
07C8
ENDCHAR
STARTCHAR cacute
ENCODING 263
SWIDTH 520 0
DWIDTH 11 0
BBX 9 14 1 0
BITMAP
0600
1E00
3000
0000
1E00
7380
6380
E380
E000
E000
E000
6080
3100
1E00
ENDCHAR
STARTCHAR Ccircumflex
ENCODING 264
SWIDTH 711 0
DWIDTH 15 0
BBX 13 20 1 0
BITMAP
0380
07C0
0020
0000
07C8
1C38
3818
7808
7008
F000
F000
F000
F000
F000
F000
7008
7008
3818
1838
07C8
ENDCHAR
STARTCHAR ccircumflex
ENCODING 265
SWIDTH 520 0
DWIDTH 11 0
BBX 9 13 1 0
BITMAP
1C00
6200
0000
1E00
7380
6380
E380
E000
E000
E000
6080
3100
1E00
ENDCHAR
STARTCHAR Cdotaccent
ENCODING 266
SWIDTH 711 0
DWIDTH 15 0
BBX 13 20 1 0
BITMAP
0180
0380
0380
0000
07C8
1C38
3818
7808
7008
F000
F000
F000
F000
F000
F000
7008
7008
3818
1838
07C8
ENDCHAR
STARTCHAR cdotaccent
ENCODING 267
SWIDTH 520 0
DWIDTH 11 0
BBX 9 15 1 0
BITMAP
1C00
1C00
1C00
0000
0000
1E00
7380
6380
E380
E000
E000
E000
6080
3100
1E00
ENDCHAR
STARTCHAR Ccaron
ENCODING 268
SWIDTH 711 0
DWIDTH 15 0
BBX 13 20 1 0
BITMAP
0C60
07C0
0380
0000
07C8
1C38
3818
7808
7008
F000
F000
F000
F000
F000
F000
7008
7008
3818
1838
07C8
ENDCHAR
STARTCHAR ccaron
ENCODING 269
SWIDTH 520 0
DWIDTH 11 0
BBX 9 16 1 0
BITMAP
4100
3600
1C00
1C00
0000
0000
1E00
7380
6380
E380
E000
E000
E000
6080
3100
1E00
ENDCHAR
STARTCHAR Dcaron
ENCODING 270
SWIDTH 798 0
DWIDTH 17 0
BBX 16 20 0 0
BITMAP
0430
03E0
01C0
0000
FFE0
3C18
3C1C
3C0E
3C0E
3C0F
3C0F
3C0F
3C0F
3C0F
3C0F
3C0E
3C0E
3C1C
3C18
FFE0
ENDCHAR
STARTCHAR dcaron
ENCODING 271
SWIDTH 728 0
DWIDTH 15 0
BBX 13 16 0 0
BITMAP
63E0
F0E0
D0E0
10E0
20E0
40E0
1EE0
39E0
30E0
70E0
70E0
70E0
70E0
30E0
39E0
1EF8
ENDCHAR
STARTCHAR Dcroat
ENCODING 272
SWIDTH 798 0
DWIDTH 17 0
BBX 16 16 0 0
BITMAP
FFE0
3C18
3C1C
3C0E
3C0E
3C0F
3C0F
FF8F
3C0F
3C0F
3C0F
3C0E
3C0E
3C1C
3C18
FFE0
ENDCHAR
STARTCHAR dcroat
ENCODING 273
SWIDTH 631 0
DWIDTH 13 0
BBX 12 16 1 0
BITMAP
07C0
01C0
01C0
0FF0
01C0
01C0
3DC0
73C0
61C0
E1C0
E1C0
E1C0
E1C0
E1C0
73C0
3DF0
ENDCHAR
STARTCHAR Emacron
ENCODING 274
SWIDTH 696 0
DWIDTH 15 0
BBX 14 19 0 0
BITMAP
0FE0
0FE0
0000
FFFC
3C0C
3C0C
3C04
3C00
3C40
3C40
3CC0
3FC0
3C40
3C40
3C44
3C04
3C0C
3C0C
FFFC
ENDCHAR
STARTCHAR emacron
ENCODING 275
SWIDTH 537 0
DWIDTH 11 0
BBX 9 15 1 0
BITMAP
7F00
7F00
0000
0000
0000
1E00
7380
6180
E180
FF80
E000
E000
6080
7080
1F00
ENDCHAR
STARTCHAR Ebreve
ENCODING 276
SWIDTH 696 0
DWIDTH 15 0
BBX 14 20 0 0
BITMAP
0840
07C0
0380
0000
FFFC
3C0C
3C0C
3C04
3C00
3C40
3C40
3CC0
3FC0
3C40
3C40
3C44
3C04
3C0C
3C0C
FFFC
ENDCHAR
STARTCHAR ebreve
ENCODING 277
SWIDTH 537 0
DWIDTH 11 0
BBX 9 14 1 0
BITMAP
2100
3E00
1C00
0000
1E00
7380
6180
E180
FF80
E000
E000
6080
7080
1F00
ENDCHAR
STARTCHAR Edotaccent
ENCODING 278
SWIDTH 696 0
DWIDTH 15 0
BBX 14 20 0 0
BITMAP
0300
0380
0300
0000
FFFC
3C0C
3C0C
3C04
3C00
3C40
3C40
3CC0
3FC0
3C40
3C40
3C44
3C04
3C0C
3C0C
FFFC
ENDCHAR
STARTCHAR edotaccent
ENCODING 279
SWIDTH 537 0
DWIDTH 11 0
BBX 9 15 1 0
BITMAP
1C00
1C00
1C00
0000
0000
1E00
7380
6180
E180
FF80
E000
E000
6080
7080
1F00
ENDCHAR
STARTCHAR Eogonek
ENCODING 280
SWIDTH 696 0
DWIDTH 15 0
BBX 14 21 0 -5
BITMAP
FFFC
3C0C
3C0C
3C04
3C00
3C40
3C40
3CC0
3FC0
3C40
3C40
3C44
3C04
3C0C
3C0C
FFFC
0060
00C0
00C0
00D0
00E0
ENDCHAR
STARTCHAR eogonek
ENCODING 281
SWIDTH 537 0
DWIDTH 11 0
BBX 10 15 0 -5
BITMAP
0F00
39C0
30C0
70C0
7FC0
7000
7000
7040
3840
1F80
2000
6000
C000
C000
7000
ENDCHAR
STARTCHAR Ecaron
ENCODING 282
SWIDTH 696 0
DWIDTH 15 0
BBX 14 20 0 0
BITMAP
1860
07C0
0380
0000
FFFC
3C0C
3C0C
3C04
3C00
3C40
3C40
3CC0
3FC0
3C40
3C40
3C44
3C04
3C0C
3C0C
FFFC
ENDCHAR
STARTCHAR ecaron
ENCODING 283
SWIDTH 537 0
DWIDTH 11 0
BBX 9 16 1 0
BITMAP
6100
3600
1E00
0C00
0000
0000
1E00
7380
6180
E180
FF80
E000
E000
6080
7080
1F00
ENDCHAR
STARTCHAR Gcircumflex
ENCODING 284
SWIDTH 790 0
DWIDTH 17 0
BBX 15 20 1 0
BITMAP
0380
07C0
0800
0000
07C8
1C38
3818
3808
7008
7000
F000
F000
F000
F000
F0FE
703C
703C
3838
1870
07C0
ENDCHAR
STARTCHAR gcircumflex
ENCODING 285
SWIDTH 565 0
DWIDTH 12 0
BBX 11 20 1 -7
BITMAP
1E00
3300
0000
3E60
73E0
6380
E380
6380
7300
3E00
C000
8000
FF80
FFC0
20C0
C040
C040
C0C0
E180
3E00
ENDCHAR
STARTCHAR Gbreve
ENCODING 286
SWIDTH 790 0
DWIDTH 17 0
BBX 15 20 1 0
BITMAP
0840
07C0
0780
0000
07C8
1C38
3818
3808
7008
7000
F000
F000
F000
F000
F0FE
703C
703C
3838
1870
07C0
ENDCHAR
STARTCHAR gbreve
ENCODING 287
SWIDTH 565 0
DWIDTH 12 0
BBX 11 21 1 -7
BITMAP
2100
3F00
1E00
0000
3E60
73E0
6380
E380
6380
7300
3E00
C000
8000
FF80
FFC0
20C0
C040
C040
C0C0
E180
3E00
ENDCHAR
STARTCHAR Gdotaccent
ENCODING 288
SWIDTH 790 0
DWIDTH 17 0
BBX 15 20 1 0
BITMAP
0300
0380
0300
0000
07C8
1C38
3818
3808
7008
7000
F000
F000
F000
F000
F0FE
703C
703C
3838
1870
07C0
ENDCHAR
STARTCHAR gdotaccent
ENCODING 289
SWIDTH 565 0
DWIDTH 12 0
BBX 11 22 1 -7
BITMAP
0C00
1E00
0C00
0000
0000
3E60
73E0
6380
E380
6380
7300
3E00
C000
8000
FF80
FFC0
20C0
C040
C040
C0C0
E180
3E00
ENDCHAR
STARTCHAR Gcommaaccent
ENCODING 290
SWIDTH 790 0
DWIDTH 17 0
BBX 15 23 1 -7
BITMAP
07C8
1C38
3818
3808
7008
7000
F000
F000
F000
F000
F0FE
703C
703C
7038
3838
1C70
0780
0000
0300
0380
0280
0080
0300
ENDCHAR
STARTCHAR gcommaaccent
ENCODING 291
SWIDTH 565 0
DWIDTH 12 0
BBX 11 23 1 -7
BITMAP
0400
1800
1400
1E00
0C00
0000
3E60
73E0
6380
E380
6380
7300
3E00
C000
8000
FF80
FFC0
20C0
C040
C040
C0C0
E180
3E00
ENDCHAR
STARTCHAR Hcircumflex
ENCODING 292
SWIDTH 826 0
DWIDTH 17 0
BBX 17 20 0 0
BITMAP
01C000
03E000
001000
000000
FF3F80
3C0E00
3C0E00
3C0E00
3C0E00
3C0E00
3C0E00
3FFE00
3C0E00
3C0E00
3C0E00
3C0E00
3C0E00
3C0E00
3C0E00
FF3F80
ENDCHAR
STARTCHAR hcircumflex
ENCODING 293
SWIDTH 619 0
DWIDTH 13 0
BBX 13 16 0 0
BITMAP
F800
3800
39E0
3B30
3800
3800
3BC0
3CE0
3CE0
38E0
38E0
38E0
38E0
38E0
38E0
FDF8
ENDCHAR
STARTCHAR Hbar
ENCODING 294
SWIDTH 826 0
DWIDTH 17 0
BBX 17 16 0 0
BITMAP
FF3F80
3C0E00
3C0E00
3C0E00
FFFF80
3C0E00
3C0E00
3FFE00
3C0E00
3C0E00
3C0E00
3C0E00
3C0E00
3C0E00
3C0E00
FF3F80
ENDCHAR
STARTCHAR hbar
ENCODING 295
SWIDTH 619 0
DWIDTH 13 0
BBX 13 16 0 0
BITMAP
F800
3800
3800
FF80
3800
3800
3BC0
3CE0
3CE0
38E0
38E0
38E0
38E0
38E0
38E0
FDF8
ENDCHAR
STARTCHAR Itilde
ENCODING 296
SWIDTH 386 0
DWIDTH 8 0
BBX 8 21 0 0
BITMAP
71
FF
8E
00
00
FF
3C
3C
3C
3C
3C
3C
3C
3C
3C
3C
3C
3C
3C
3C
FF
ENDCHAR
STARTCHAR itilde
ENCODING 297
SWIDTH 319 0
DWIDTH 7 0
BBX 8 15 -1 0
BITMAP
39
7F
8E
00
00
7C
1C
1C
1C
1C
1C
1C
1C
1C
7E
ENDCHAR
STARTCHAR Imacron
ENCODING 298
SWIDTH 386 0
DWIDTH 8 0
BBX 8 19 0 0
BITMAP
7F
7F
00
FF
3C
3C
3C
3C
3C
3C
3C
3C
3C
3C
3C
3C
3C
3C
FF
ENDCHAR
STARTCHAR imacron
ENCODING 299
SWIDTH 319 0
DWIDTH 7 0
BBX 7 16 0 0
BITMAP
FE
FE
00
00
00
00
F8
38
38
38
38
38
38
38
38
FC
ENDCHAR
STARTCHAR Ibreve
ENCODING 300
SWIDTH 386 0
DWIDTH 8 0
BBX 8 20 0 0
BITMAP
42
7E
3C
00
FF
3C
3C
3C
3C
3C
3C
3C
3C
3C
3C
3C
3C
3C
3C
FF
ENDCHAR
STARTCHAR ibreve
ENCODING 301
SWIDTH 319 0
DWIDTH 7 0
BBX 6 14 0 0
BITMAP
84
7C
38
00
F8
38
38
38
38
38
38
38
38
FC
ENDCHAR
STARTCHAR Iogonek
ENCODING 302
SWIDTH 386 0
DWIDTH 8 0
BBX 8 21 0 -5
BITMAP
FF
3C
3C
3C
3C
3C
3C
3C
3C
3C
3C
3C
3C
3C
3C
FF
10
20
60
60
78
ENDCHAR
STARTCHAR iogonek
ENCODING 303
SWIDTH 319 0
DWIDTH 7 0
BBX 6 21 0 -5
BITMAP
38
38
38
00
00
00
F8
38
38
38
38
38
38
38
38
FC
20
60
C0
C0
70
ENDCHAR
STARTCHAR Idotaccent
ENCODING 304
SWIDTH 386 0
DWIDTH 8 0
BBX 8 20 0 0
BITMAP
18
18
18
00
FF
3C
3C
3C
3C
3C
3C
3C
3C
3C
3C
3C
3C
3C
3C
FF
ENDCHAR
STARTCHAR dotlessi
ENCODING 305
SWIDTH 319 0
DWIDTH 7 0
BBX 6 10 0 0
BITMAP
F8
38
38
38
38
38
38
38
38
FC
ENDCHAR
STARTCHAR IJ
ENCODING 306
SWIDTH 772 0
DWIDTH 16 0
BBX 16 18 0 -2
BITMAP
FF7F
3C1C
3C1C
3C1C
3C1C
3C1C
3C1C
3C1C
3C1C
3C1C
3C1C
3C1C
3C1C
3C1C
3F1C
FF98
03B8
01E0
ENDCHAR
STARTCHAR ij
ENCODING 307
SWIDTH 637 0
DWIDTH 13 0
BBX 12 23 0 -7
BITMAP
3860
38F0
3870
0000
0000
0000
F9F0
3870
3870
3870
3870
3870
3870
3870
3870
FC70
0070
0070
0070
0260
0760
0740
0380
ENDCHAR
STARTCHAR Jcircumflex
ENCODING 308
SWIDTH 386 0
DWIDTH 8 0
BBX 10 22 -2 -2
BITMAP
0600
0F80
1000
0000
3FC0
0F00
0F00
0F00
0F00
0F00
0F00
0F00
0F00
0F00
0F00
0F00
0F00
0F00
EF00
EE00
EE00
7800
ENDCHAR
STARTCHAR jcircumflex
ENCODING 309
SWIDTH 318 0
DWIDTH 7 0
BBX 8 21 -2 -7
BITMAP
0E
1F
20
00
3E
0E
0E
0E
0E
0E
0E
0E
0E
0E
0E
0E
0E
4E
EC
EC
78
ENDCHAR
STARTCHAR Kcommaaccent
ENCODING 310
SWIDTH 811 0
DWIDTH 17 0
BBX 17 23 0 -7
BITMAP
FF3F00
3C0800
3C1000
3C2000
3C4000
3C8000
3DC000
3FC000
3DE000
3DF000
3CF000
3C7800
3C3C00
3C3C00
3C1E00
FF7F80
000000
008000
01C000
01C000
004000
004000
018000
ENDCHAR
STARTCHAR kcommaaccent
ENCODING 311
SWIDTH 618 0
DWIDTH 13 0
BBX 13 23 0 -7
BITMAP
F800
3800
3800
3800
3800
3800
39F0
3880
3900
3B00
3F80
3B80
39C0
39E0
38E0
FDF8
0000
0600
0700
0700
0100
0100
0600
ENDCHAR
STARTCHAR kgreenlandic
ENCODING 312
SWIDTH 618 0
DWIDTH 13 0
BBX 13 10 0 0
BITMAP
F9F0
3880
3900
3B00
3F80
3B80
39C0
39E0
38E0
FDF8
ENDCHAR
STARTCHAR Lacute
ENCODING 313
SWIDTH 681 0
DWIDTH 14 0
BBX 14 20 0 0
BITMAP
0E00
3E00
4000
0000
FF00
3C00
3C00
3C00
3C00
3C00
3C00
3C00
3C00
3C00
3C00
3C04
3C04
3C0C
3C0C
FFFC
ENDCHAR
STARTCHAR lacute
ENCODING 314
SWIDTH 329 0
DWIDTH 7 0
BBX 7 20 0 0
BITMAP
0E
3C
40
00
F8
38
38
38
38
38
38
38
38
38
38
38
38
38
38
FE
ENDCHAR
STARTCHAR Lcommaaccent
ENCODING 315
SWIDTH 681 0
DWIDTH 14 0
BBX 14 23 0 -7
BITMAP
FF00
3C00
3C00
3C00
3C00
3C00
3C00
3C00
3C00
3C00
3C00
3C04
3C04
3C0C
3C0C
FFFC
0000
0300
0780
0380
0080
0100
0200
ENDCHAR
STARTCHAR lcommaaccent
ENCODING 316
SWIDTH 329 0
DWIDTH 7 0
BBX 7 23 0 -7
BITMAP
F8
38
38
38
38
38
38
38
38
38
38
38
38
38
38
FE
00
30
38
38
08
08
30
ENDCHAR
STARTCHAR Lcaron
ENCODING 317
SWIDTH 681 0
DWIDTH 14 0
BBX 14 20 0 0
BITMAP
C300
7C00
1800
0000
FF00
3C00
3C00
3C00
3C00
3C00
3C00
3C00
3C00
3C00
3C00
3C04
3C04
3C0C
3C0C
FFFC
ENDCHAR
STARTCHAR lcaron
ENCODING 318
SWIDTH 388 0
DWIDTH 8 0
BBX 10 16 0 0
BITMAP
F980
3BC0
3B40
3840
3880
3900
3800
3800
3800
3800
3800
3800
3800
3800
3800
FE00
ENDCHAR
STARTCHAR Ldot
ENCODING 319
SWIDTH 955 0
DWIDTH 20 0
BBX 14 16 0 0
BITMAP
FF00
3C00
3C00
3C00
3C00
3C00
3CE0
3CE0
3CE0
3C40
3C00
3C04
3C04
3C0C
3C0C
FFFC
ENDCHAR
STARTCHAR ldot
ENCODING 320
SWIDTH 410 0
DWIDTH 9 0
BBX 10 16 0 0
BITMAP
F800
3800
3800
3800
3800
3800
3800
3800
3980
3BC0
3BC0
3980
3800
3800
3800
FE00
ENDCHAR
STARTCHAR Lslash
ENCODING 321
SWIDTH 681 0
DWIDTH 14 0
BBX 14 16 0 0
BITMAP
FF00
3C00
3C00
3C00
3C00
3C80
3D00
3E00
3C00
3C00
7C00
3C04
3C04
3C0C
3C0C
FFFC
ENDCHAR
STARTCHAR lslash
ENCODING 322
SWIDTH 329 0
DWIDTH 7 0
BBX 7 16 0 0
BITMAP
F8
38
38
38
38
3A
3C
38
F8
B8
38
38
38
38
38
FE
ENDCHAR
STARTCHAR Nacute
ENCODING 323
SWIDTH 791 0
DWIDTH 17 0
BBX 16 20 0 0
BITMAP
00E0
01E0
0600
0000
FE1F
1F04
1F04
1F84
17C4
13C4
11E4
11F4
10FC
107C
107C
103C
101C
101C
100C
FC04
ENDCHAR
STARTCHAR nacute
ENCODING 324
SWIDTH 614 0
DWIDTH 13 0
BBX 13 14 0 0
BITMAP
0180
0780
1800
0000
FBC0
3CE0
3CE0
38E0
38E0
38E0
38E0
38E0
38E0
FDF8
ENDCHAR
STARTCHAR Ncommaaccent
ENCODING 325
SWIDTH 791 0
DWIDTH 17 0
BBX 16 23 0 -7
BITMAP
FE1F
1F04
1F04
1F84
17C4
13C4
11E4
11F4
10FC
107C
107C
103C
101C
101C
100C
FC04
0000
0180
01C0
01C0
0040
0080
0100
ENDCHAR
STARTCHAR ncommaaccent
ENCODING 326
SWIDTH 614 0
DWIDTH 13 0
BBX 13 17 0 -7
BITMAP
FBC0
3CE0
3CE0
38E0
38E0
38E0
38E0
38E0
38E0
FDF8
0000
0600
0700
0700
0100
0200
0400
ENDCHAR
STARTCHAR Ncaron
ENCODING 327
SWIDTH 791 0
DWIDTH 17 0
BBX 16 20 0 0
BITMAP
0C30
03E0
01C0
0000
FE1F
1F04
1F04
1F84
17C4
13C4
11E4
11F4
10FC
107C
107C
103C
101C
101C
100C
FC04
ENDCHAR
STARTCHAR ncaron
ENCODING 328
SWIDTH 614 0
DWIDTH 13 0
BBX 13 16 0 0
BITMAP
1040
0D80
0700
0700
0000
0000
FBC0
3CE0
3CE0
38E0
38E0
38E0
38E0
38E0
38E0
FDF8
ENDCHAR
STARTCHAR napostrophe
ENCODING 329
SWIDTH 614 0
DWIDTH 13 0
BBX 13 18 0 0
BITMAP
6000
F000
F000
5000
1000
1000
2000
4000
FBC0
3CE0
3CE0
38E0
38E0
38E0
38E0
38E0
38E0
FDF8
ENDCHAR
STARTCHAR Eng
ENCODING 330
SWIDTH 791 0
DWIDTH 17 0
BBX 16 20 0 -4
BITMAP
FE1F
1F04
1F84
1784
17C4
13E4
11F4
10FC
10FC
107C
103C
101C
101C
100C
1004
FC04
0074
00F4
0064
0078
ENDCHAR
STARTCHAR eng
ENCODING 331
SWIDTH 614 0
DWIDTH 13 0
BBX 11 17 0 -7
BITMAP
FBC0
3CE0
3CE0
38E0
38E0
38E0
38E0
38E0
38E0
FCE0
00E0
00E0
00E0
00E0
06E0
06C0
0380
ENDCHAR
STARTCHAR Omacron
ENCODING 332
SWIDTH 823 0
DWIDTH 17 0
BBX 15 19 1 0
BITMAP
0FE0
0FE0
0000
07C0
1830
3018
701C
701E
F01E
F01E
F01E
F01E
F01E
F01E
701E
701C
3818
1830
07C0
ENDCHAR
STARTCHAR omacron
ENCODING 333
SWIDTH 589 0
DWIDTH 12 0
BBX 10 15 1 0
BITMAP
3F80
3F80
0000
0000
0000
1F00
7180
61C0
E1C0
E1C0
E1C0
E1C0
61C0
7180
1F00
ENDCHAR
STARTCHAR Obreve
ENCODING 334
SWIDTH 823 0
DWIDTH 17 0
BBX 15 20 1 0
BITMAP
0420
07C0
0380
0000
07C0
1830
3018
701C
701E
F01E
F01E
F01E
F01E
F01E
F01E
701E
701C
3818
1830
07C0
ENDCHAR
STARTCHAR obreve
ENCODING 335
SWIDTH 589 0
DWIDTH 12 0
BBX 10 14 1 0
BITMAP
2100
3F00
1E00
0000
1F00
7180
61C0
E1C0
E1C0
E1C0
E1C0
61C0
7180
1F00
ENDCHAR
STARTCHAR Ohungarumlaut
ENCODING 336
SWIDTH 823 0
DWIDTH 17 0
BBX 15 20 1 0
BITMAP
00CC
03DC
0F70
0000
07C0
1830
3018
701C
701E
F01E
F01E
F01E
F01E
F01E
F01E
701E
701C
3818
1830
07C0
ENDCHAR
STARTCHAR ohungarumlaut
ENCODING 337
SWIDTH 589 0
DWIDTH 12 0
BBX 11 16 1 0
BITMAP
0660
0EE0
1CC0
1980
0000
0000
1F00
7180
61C0
E1C0
E1C0
E1C0
E1C0
61C0
7180
1F00
ENDCHAR
STARTCHAR OE
ENCODING 338
SWIDTH 1179 0
DWIDTH 25 0
BBX 23 16 1 0
BITMAP
07FFFE
183E06
381E06
701E02
701E00
F01E00
F01E20
F01E60
F01FE0
F01E20
F01E20
701E02
701E02
301E02
183E06
07FFFE
ENDCHAR
STARTCHAR oe
ENCODING 339
SWIDTH 881 0
DWIDTH 19 0
BBX 17 10 1 0
BITMAP
1E3C00
71E300
61E300
E1C380
E1FF80
E1C000
E1C000
61E080
71E100
1F3E00
ENDCHAR
STARTCHAR Racute
ENCODING 340
SWIDTH 740 0
DWIDTH 16 0
BBX 16 20 0 0
BITMAP
00E0
03C0
0400
0000
FFF0
3C38
3C3C
3C3C
3C3C
3C3C
3C78
3FC0
3C70
3C78
3C78
3C3C
3C3C
3C3C
3C3C
FF1F
ENDCHAR
STARTCHAR racute
ENCODING 341
SWIDTH 506 0
DWIDTH 11 0
BBX 10 14 0 0
BITMAP
0700
0F00
3000
0000
FB80
3DC0
3DC0
3880
3800
3800
3800
3800
3800
FC00
ENDCHAR
STARTCHAR Rcommaaccent
ENCODING 342
SWIDTH 740 0
DWIDTH 16 0
BBX 16 23 0 -7
BITMAP
FFF0
3C38
3C3C
3C3C
3C3C
3C3C
3C78
3FC0
3C70
3C78
3C78
3C3C
3C3C
3C3C
3C3C
FF1F
0000
0100
0380
0340
0080
0080
0100
ENDCHAR
STARTCHAR rcommaaccent
ENCODING 343
SWIDTH 506 0
DWIDTH 11 0
BBX 10 17 0 -7
BITMAP
FB80
3DC0
3DC0
3880
3800
3800
3800
3800
3800
FC00
0000
0C00
0E00
0E00
0200
0400
0800
ENDCHAR
STARTCHAR Rcaron
ENCODING 344
SWIDTH 740 0
DWIDTH 16 0
BBX 16 20 0 0
BITMAP
0C30
07C0
0380
0000
FFF0
3C38
3C3C
3C3C
3C3C
3C3C
3C78
3FC0
3C70
3C78
3C78
3C3C
3C3C
3C3C
3C3C
FF1F
ENDCHAR
STARTCHAR rcaron
ENCODING 345
SWIDTH 506 0
DWIDTH 11 0
BBX 10 16 0 0
BITMAP
2180
1B00
1E00
0E00
0000
0000
FB80
3DC0
3DC0
3880
3800
3800
3800
3800
3800
FC00
ENDCHAR
STARTCHAR Sacute
ENCODING 346
SWIDTH 569 0
DWIDTH 12 0
BBX 10 20 1 0
BITMAP
0700
0F00
3000
0000
3E40
41C0
C0C0
C040
C000
FC00
FF00
7F80
3FC0
0FC0
00C0
0040
8040
8040
C080
BF00
ENDCHAR
STARTCHAR sacute
ENCODING 347
SWIDTH 429 0
DWIDTH 9 0
BBX 7 14 1 0
BITMAP
0C
3C
60
00
7E
C6
C2
F0
FC
7E
1E
82
82
FC
ENDCHAR
STARTCHAR Scircumflex
ENCODING 348
SWIDTH 569 0
DWIDTH 12 0
BBX 10 20 1 0
BITMAP
0C00
1E00
2100
0000
3E40
41C0
C0C0
C040
C000
FC00
FF00
7F80
3FC0
0FC0
00C0
0040
8040
8040
C080
BF00
ENDCHAR
STARTCHAR scircumflex
ENCODING 349
SWIDTH 429 0
DWIDTH 9 0
BBX 7 14 1 0
BITMAP
38
7C
82
00
7E
C6
C2
F0
FC
7E
1E
82
82
FC
ENDCHAR
STARTCHAR Scedilla
ENCODING 350
SWIDTH 569 0
DWIDTH 12 0
BBX 10 21 1 -5
BITMAP
3E40
41C0
C0C0
C040
C000
FC00
FF00
7F80
3FC0
0FC0
00C0
0040
8040
8040
C080
BF00
0800
0E00
0700
0600
1C00
ENDCHAR
STARTCHAR scedilla
ENCODING 351
SWIDTH 429 0
DWIDTH 9 0
BBX 7 14 1 -4
BITMAP
7E
C6
C2
F0
FC
7E
1E
82
82
FC
10
3C
0C
78
ENDCHAR
STARTCHAR Scaron
ENCODING 352
SWIDTH 569 0
DWIDTH 12 0
BBX 10 20 1 0
BITMAP
6180
3E00
0C00
0000
3E40
41C0
C0C0
C040
C000
FC00
FF00
7F80
3FC0
0FC0
00C0
0040
8040
8040
C080
BF00
ENDCHAR
STARTCHAR scaron
ENCODING 353
SWIDTH 429 0
DWIDTH 9 0
BBX 7 16 1 0
BITMAP
C6
6C
38
18
00
00
7E
C6
C2
F0
FC
7E
1E
82
82
FC
ENDCHAR
STARTCHAR uni0162
ENCODING 354
SWIDTH 724 0
DWIDTH 15 0
BBX 15 21 0 -5
BITMAP
FFFE
E386
C386
8382
8382
0380
0380
0380
0380
0380
0380
0380
0380
0380
0380
1FF0
0100
03C0
00C0
00C0
0780
ENDCHAR
STARTCHAR uni0163
ENCODING 355
SWIDTH 354 0
DWIDTH 7 0
BBX 7 19 0 -5
BITMAP
08
18
18
38
FE
38
38
38
38
38
38
38
3A
3E
10
1C
0C
0C
78
ENDCHAR
STARTCHAR Tcaron
ENCODING 356
SWIDTH 724 0
DWIDTH 15 0
BBX 15 20 0 0
BITMAP
0C60
07C0
0380
0000
FFFE
E386
C386
8382
8382
0380
0380
0380
0380
0380
0380
0380
0380
0380
0380
1FF0
ENDCHAR
STARTCHAR tcaron
ENCODING 357
SWIDTH 379 0
DWIDTH 8 0
BBX 9 17 0 0
BITMAP
0380
0380
0380
0880
1880
1900
3800
FE00
3800
3800
3800
3800
3800
3800
3800
3A00
3E00
ENDCHAR
STARTCHAR Tbar
ENCODING 358
SWIDTH 724 0
DWIDTH 15 0
BBX 15 16 0 0
BITMAP
FFFE
E386
C386
8382
8382
0380
0380
1FF0
0380
0380
0380
0380
0380
0380
0380
1FF0
ENDCHAR
STARTCHAR tbar
ENCODING 359
SWIDTH 354 0
DWIDTH 7 0
BBX 9 14 -1 0
BITMAP
0400
0C00
0C00
1C00
7F00
1C00
1C00
FF80
1C00
1C00
1C00
1C00
1D00
1F00
ENDCHAR
STARTCHAR Utilde
ENCODING 360
SWIDTH 774 0
DWIDTH 16 0
BBX 16 21 0 0
BITMAP
0790
0FF0
08E0
0000
0000
FF1F
3C04
3C04
3C04
3C04
3C04
3C04
3C04
3C04
3C04
3C04
3C04
3C04
1C04
1E08
07F0
ENDCHAR
STARTCHAR utilde
ENCODING 361
SWIDTH 613 0
DWIDTH 13 0
BBX 13 15 0 0
BITMAP
0E00
1FC0
2380
0000
0000
FBE0
38E0
38E0
38E0
38E0
38E0
38E0
38E0
39E0
1EF8
ENDCHAR
STARTCHAR Umacron
ENCODING 362
SWIDTH 774 0
DWIDTH 16 0
BBX 16 19 0 0
BITMAP
07F0
07F0
0000
FF1F
3C04
3C04
3C04
3C04
3C04
3C04
3C04
3C04
3C04
3C04
3C04
3C04
1C04
1E08
07F0
ENDCHAR
STARTCHAR umacron
ENCODING 363
SWIDTH 613 0
DWIDTH 13 0
BBX 13 16 0 0
BITMAP
1FC0
1FC0
0000
0000
0000
0000
FBE0
38E0
38E0
38E0
38E0
38E0
38E0
38E0
39E0
1EF8
ENDCHAR
STARTCHAR Ubreve
ENCODING 364
SWIDTH 774 0
DWIDTH 16 0
BBX 16 20 0 0
BITMAP
0420
07E0
03C0
0000
FF1F
3C04
3C04
3C04
3C04
3C04
3C04
3C04
3C04
3C04
3C04
3C04
3C04
1C04
1E08
07F0
ENDCHAR
STARTCHAR ubreve
ENCODING 365
SWIDTH 613 0
DWIDTH 13 0
BBX 13 14 0 0
BITMAP
1080
0F80
0700
0000
FBE0
38E0
38E0
38E0
38E0
38E0
38E0
38E0
39E0
1EF8
ENDCHAR
STARTCHAR Uring
ENCODING 366
SWIDTH 774 0
DWIDTH 16 0
BBX 16 21 0 0
BITMAP
01C0
0240
0240
0180
0000
FF1F
3C04
3C04
3C04
3C04
3C04
3C04
3C04
3C04
3C04
3C04
3C04
3C04
1C04
1E08
07F0
ENDCHAR
STARTCHAR uring
ENCODING 367
SWIDTH 613 0
DWIDTH 13 0
BBX 13 16 0 0
BITMAP
0700
0900
0900
0700
0000
0000
FBE0
38E0
38E0
38E0
38E0
38E0
38E0
38E0
39E0
1EF8
ENDCHAR
STARTCHAR Uhungarumlaut
ENCODING 368
SWIDTH 774 0
DWIDTH 16 0
BBX 16 20 0 0
BITMAP
0063
01EF
03B8
0000
FF1F
3C04
3C04
3C04
3C04
3C04
3C04
3C04
3C04
3C04
3C04
3C04
3C04
1C04
1E08
07F0
ENDCHAR
STARTCHAR uhungarumlaut
ENCODING 369
SWIDTH 613 0
DWIDTH 13 0
BBX 13 16 0 0
BITMAP
1980
3B80
3300
6600
0000
0000
FBE0
38E0
38E0
38E0
38E0
38E0
38E0
38E0
39E0
1EF8
ENDCHAR
STARTCHAR Uogonek
ENCODING 370
SWIDTH 774 0
DWIDTH 16 0
BBX 16 21 0 -5
BITMAP
FF1F
3C04
3C04
3C04
3C04
3C04
3C04
3C04
3C04
3C04
3C04
3C04
3C04
1C04
1E08
07F0
0180
0300
0300
0340
0380
ENDCHAR
STARTCHAR uogonek
ENCODING 371
SWIDTH 613 0
DWIDTH 13 0
BBX 13 15 0 -5
BITMAP
FBE0
38E0
38E0
38E0
38E0
38E0
38E0
38E0
39E0
1EF8
0040
0080
0180
0180
01C0
ENDCHAR
STARTCHAR Wcircumflex
ENCODING 372
SWIDTH 1019 0
DWIDTH 21 0
BBX 22 20 0 0
BITMAP
007000
00F800
000400
000000
FFFF7C
38F410
3C7420
3C7C20
1C7820
1E3840
1E3C40
0F1C80
0F3C80
073E80
07CF00
07CF00
038F00
038600
018600
010400
ENDCHAR
STARTCHAR wcircumflex
ENCODING 373
SWIDTH 690 0
DWIDTH 14 0
BBX 15 14 0 0
BITMAP
0300
07C0
0800
0000
F89E
7188
39C8
39D0
3BD0
1EF0
1CE0
1C60
0860
0800
ENDCHAR
STARTCHAR Ycircumflex
ENCODING 374
SWIDTH 766 0
DWIDTH 16 0
BBX 16 20 0 0
BITMAP
0180
03E0
0400
0000
FF1F
3C04
1E08
1E08
0F10
0790
07A0
03E0
03C0
01C0
01C0
01C0
01C0
01C0
01C0
0FF0
ENDCHAR
STARTCHAR ycircumflex
ENCODING 375
SWIDTH 501 0
DWIDTH 11 0
BBX 11 21 0 -7
BITMAP
0E00
1F00
2000
0000
FDE0
7080
3880
3900
1D00
1D00
1E00
0E00
0C00
0400
0400
0800
0800
1000
D000
F000
E000
ENDCHAR
STARTCHAR Ydieresis
ENCODING 376
SWIDTH 766 0
DWIDTH 16 0
BBX 16 20 0 0
BITMAP
0660
0660
0660
0000
FF1F
3C04
1E08
1E08
0F10
0790
07A0
03E0
03C0
01C0
01C0
01C0
01C0
01C0
01C0
0FF0
ENDCHAR
STARTCHAR Zacute
ENCODING 377
SWIDTH 621 0
DWIDTH 13 0
BBX 13 20 0 0
BITMAP
01C0
0780
0800
0000
7FF8
60F8
60F0
41E0
01E0
03C0
0780
0780
0F00
0F00
1E00
3C08
3C08
7818
7838
FFF8
ENDCHAR
STARTCHAR zacute
ENCODING 378
SWIDTH 476 0
DWIDTH 10 0
BBX 8 14 1 0
BITMAP
0E
1E
60
00
FF
C7
8E
9E
1C
38
79
71
E1
FF
ENDCHAR
STARTCHAR Zdotaccent
ENCODING 379
SWIDTH 621 0
DWIDTH 13 0
BBX 13 20 0 0
BITMAP
0200
0700
0700
0000
7FF8
60F8
60F0
41E0
01E0
03C0
0780
0780
0F00
0F00
1E00
3C08
3C08
7818
7838
FFF8
ENDCHAR
STARTCHAR zdotaccent
ENCODING 380
SWIDTH 476 0
DWIDTH 10 0
BBX 8 16 1 0
BITMAP
18
3C
1C
00
00
00
FF
C7
8E
9E
1C
38
79
71
E1
FF
ENDCHAR
STARTCHAR Zcaron
ENCODING 381
SWIDTH 621 0
DWIDTH 13 0
BBX 13 20 0 0
BITMAP
18C0
0F80
0700
0000
7FF8
60F8
60F0
41E0
01E0
03C0
0780
0780
0F00
0F00
1E00
3C08
3C08
7818
7838
FFF8
ENDCHAR
STARTCHAR zcaron
ENCODING 382
SWIDTH 476 0
DWIDTH 10 0
BBX 8 16 1 0
BITMAP
42
7E
3C
18
00
00
FF
C7
8E
9E
1C
38
79
71
E1
FF
ENDCHAR
STARTCHAR uni018F
ENCODING 399
SWIDTH 795 0
DWIDTH 17 0
BBX 15 16 1 0
BITMAP
07C0
1860
2038
4038
401C
001C
001E
001E
001E
FFFE
F01E
F01C
701C
7038
3030
0FC0
ENDCHAR
STARTCHAR florin
ENCODING 402
SWIDTH 435 0
DWIDTH 9 0
BBX 15 23 -4 -7
BITMAP
003C
0066
00CE
00C4
01C0
01C0
03C0
0FF0
0380
0380
0380
0380
0780
0700
0700
0700
0700
0700
0600
0E00
CC00
CC00
F000
ENDCHAR
STARTCHAR Ohorn
ENCODING 416
SWIDTH 823 0
DWIDTH 17 0
BBX 15 18 1 0
BITMAP
0018
0010
07E0
1830
3018
701C
701E
F01E
F01E
F01E
F01E
F01E
F01E
701E
701C
3818
1830
07C0
ENDCHAR
STARTCHAR ohorn
ENCODING 417
SWIDTH 589 0
DWIDTH 12 0
BBX 10 11 1 0
BITMAP
0040
1EC0
7180
61C0
E1C0
E1C0
E1C0
E1C0
61C0
7180
1F00
ENDCHAR
STARTCHAR Uhorn
ENCODING 431
SWIDTH 774 0
DWIDTH 16 0
BBX 17 18 0 0
BITMAP
000180
000180
FF1F00
3C0400
3C0400
3C0400
3C0400
3C0400
3C0400
3C0400
3C0400
3C0400
3C0400
3C0400
3C0400
1C0400
1E0800
07F000
ENDCHAR
STARTCHAR uhorn
ENCODING 432
SWIDTH 613 0
DWIDTH 13 0
BBX 14 12 0 0
BITMAP
000C
0008
FBF8
38E0
38E0
38E0
38E0
38E0
38E0
38E0
39E0
1EF8
ENDCHAR
STARTCHAR uni01C4
ENCODING 452
SWIDTH 1419 0
DWIDTH 30 0
BBX 30 20 0 0
BITMAP
00001860
000007C0
00000380
00000000
FFE03FFC
3C183078
3C1C2078
3C0E20F0
3C0E01E0
3C0F01E0
3C0F03C0
3C0F03C0
3C0F0780
3C0F0F00
3C0F0F00
3C0E1E08
3C0E1E08
3C1C3C08
3C187818
FFE07FF8
ENDCHAR
STARTCHAR uni01C5
ENCODING 453
SWIDTH 1274 0
DWIDTH 27 0
BBX 26 16 0 0
BITMAP
FFF00000
3C180000
3C0C30C0
3C0E1F00
3C0F0E00
3C0F0000
3C0F3FC0
3C0F23C0
3C0F2380
3C0F2700
3C0F0F00
3C0E0E00
3C0E1C40
3C1C3C40
3C183840
FFE07FC0
ENDCHAR
STARTCHAR uni01C6
ENCODING 454
SWIDTH 1107 0
DWIDTH 23 0
BBX 22 16 1 0
BITMAP
07C218
01C1B0
01C1E0
01C0C0
01C000
01C000
3DC7FC
73C638
61C470
E1C4F0
E1C0E0
E1C1E0
E1C1C8
61C388
73C788
3DF7F8
ENDCHAR
STARTCHAR uni01C7
ENCODING 455
SWIDTH 1236 0
DWIDTH 26 0
BBX 25 18 0 -2
BITMAP
FF003F80
3C000E00
3C000E00
3C000E00
3C000E00
3C000E00
3C000E00
3C000E00
3C000E00
3C000E00
3C000E00
3C040E00
3C040E00
3C0C0E00
3C0D8E00
FFFDCC00
0001DC00
0000F000
ENDCHAR
STARTCHAR uni01C8
ENCODING 456
SWIDTH 999 0
DWIDTH 21 0
BBX 19 23 0 -7
BITMAP
FF0000
3C00E0
3C00E0
3C00E0
3C0000
3C0000
3C01E0
3C00E0
3C00E0
3C00E0
3C00E0
3C04E0
3C04E0
3C0CE0
3C0CE0
FFFCE0
0000E0
0000E0
0000E0
0000E0
0006E0
0006C0
000380
ENDCHAR
STARTCHAR uni01C9
ENCODING 457
SWIDTH 647 0
DWIDTH 14 0
BBX 12 23 0 -7
BITMAP
F800
3870
3870
3860
3800
3800
39F0
3870
3870
3870
3870
3870
3870
3870
3870
FE70
0070
0070
0070
0270
0760
0760
03C0
ENDCHAR
STARTCHAR uni01CA
ENCODING 458
SWIDTH 1177 0
DWIDTH 25 0
BBX 24 18 0 -2
BITMAP
FE1F7F
1F041C
1F041C
1F841C
17C41C
13C41C
11E41C
11F41C
10FC1C
107C1C
107C1C
103C1C
101C1C
101C1C
100D9C
FC079C
000398
0001F0
ENDCHAR
STARTCHAR uni01CB
ENCODING 459
SWIDTH 1109 0
DWIDTH 23 0
BBX 22 23 0 -7
BITMAP
FE1F00
1F0418
1F043C
178418
17C400
13E400
11E47C
11F41C
10FC1C
107C1C
107C1C
103C1C
101C1C
101C1C
100C1C
FC041C
00001C
00001C
000018
000098
0001D8
000190
0000E0
ENDCHAR
STARTCHAR uni01CC
ENCODING 460
SWIDTH 932 0
DWIDTH 20 0
BBX 18 22 0 -7
BITMAP
0001C0
0001C0
000180
000000
000000
FBC7C0
3CE1C0
3CE1C0
38E1C0
38E1C0
38E1C0
38E1C0
38E1C0
38E1C0
FDF9C0
0001C0
0001C0
0001C0
0009C0
001D80
001D80
000F00
ENDCHAR
STARTCHAR uni01EA
ENCODING 490
SWIDTH 823 0
DWIDTH 17 0
BBX 15 21 1 -5
BITMAP
07C0
1830
3018
701C
701E
F01E
F01E
F01E
F01E
F01E
F01E
701E
701C
3018
1830
07E0
0200
0600
0400
0C00
0700
ENDCHAR
STARTCHAR uni01EB
ENCODING 491
SWIDTH 589 0
DWIDTH 12 0
BBX 11 15 0 -5
BITMAP
0F80
38C0
30E0
70E0
70E0
70E0
70E0
30E0
38C0
1F80
2000
4000
C000
C000
7000
ENDCHAR
STARTCHAR uni01F1
ENCODING 497
SWIDTH 1419 0
DWIDTH 30 0
BBX 30 16 0 0
BITMAP
FFE03FFC
3C183078
3C1C2078
3C0E20F0
3C0E01E0
3C0F01E0
3C0F03C0
3C0F03C0
3C0F0780
3C0F0F00
3C0F0F00
3C0E1E08
3C0E1E08
3C1C3C08
3C187818
FFE07FF8
ENDCHAR
STARTCHAR uni01F2
ENCODING 498
SWIDTH 1274 0
DWIDTH 27 0
BBX 26 16 0 0
BITMAP
FFE00000
3C180000
3C1C0000
3C0E0000
3C0E0000
3C0F0000
3C0F3FC0
3C0F23C0
3C0F2380
3C0F2700
3C0F0F00
3C0E0E00
3C0E1C40
3C1C3C40
3C183840
FFE07FC0
ENDCHAR
STARTCHAR uni01F3
ENCODING 499
SWIDTH 1107 0
DWIDTH 23 0
BBX 22 16 1 0
BITMAP
07C000
01C000
01C000
01C000
01C000
01C000
3DC7FC
73C638
61C470
E1C4F0
E1C0E0
E1C1E0
E1C1C8
61C388
73C788
3DF7F8
ENDCHAR
STARTCHAR uni01F4
ENCODING 500
SWIDTH 790 0
DWIDTH 17 0
BBX 15 20 1 0
BITMAP
00C0
03C0
0600
0000
07C8
1C38
3818
3808
7008
7000
F000
F000
F000
F000
F0FE
703C
703C
3838
1870
07C0
ENDCHAR
STARTCHAR uni01F5
ENCODING 501
SWIDTH 565 0
DWIDTH 12 0
BBX 11 21 1 -7
BITMAP
0700
0F00
3800
0000
3E60
73E0
6380
E380
6380
7300
3E00
C000
8000
FF80
FFC0
20C0
C040
C040
C0C0
E180
3E00
ENDCHAR
STARTCHAR Aringacute
ENCODING 506
SWIDTH 715 0
DWIDTH 15 0
BBX 15 23 0 0
BITMAP
0018
0078
01E0
0240
0240
0180
0000
0100
0180
0180
03C0
03C0
05C0
05E0
09E0
08E0
08F0
10F0
1FF0
2078
2038
203C
F8FE
ENDCHAR
STARTCHAR aringacute
ENCODING 507
SWIDTH 541 0
DWIDTH 11 0
BBX 10 18 1 0
BITMAP
0180
0780
1C00
1200
1600
1C00
0000
0000
3E00
6300
6380
6380
0F80
7380
E380
E380
E780
7BC0
ENDCHAR
STARTCHAR AEacute
ENCODING 508
SWIDTH 1131 0
DWIDTH 24 0
BBX 23 20 0 0
BITMAP
000E00
003E00
004000
000000
00FFFE
004E06
004E06
008E02
008E00
010E00
010E20
020E60
020FE0
040E20
07FE20
080E02
080E02
100E06
100E06
F83FFE
ENDCHAR
STARTCHAR aeacute
ENCODING 509
SWIDTH 816 0
DWIDTH 17 0
BBX 15 14 1 0
BITMAP
00C0
03C0
0600
0000
3E78
638C
638E
638E
0FFE
7380
E380
E582
E584
7878
ENDCHAR
STARTCHAR Oslashacute
ENCODING 510
SWIDTH 823 0
DWIDTH 17 0
BBX 15 21 1 -1
BITMAP
0060
00E0
0380
0004
07C8
1838
3018
703C
707E
F05E
F09E
F19E
F11E
F21E
F61E
741E
781C
3818
1830
27C0
6000
ENDCHAR
STARTCHAR oslashacute
ENCODING 511
SWIDTH 589 0
DWIDTH 12 0
BBX 10 15 1 -1
BITMAP
0300
0F00
1800
0000
1FC0
7180
61C0
E3C0
E5C0
E9C0
F9C0
71C0
7180
5F00
8000
ENDCHAR
STARTCHAR uni0200
ENCODING 512
SWIDTH 715 0
DWIDTH 15 0
BBX 15 20 0 0
BITMAP
19C0
1DE0
0738
0000
0100
0180
0180
03C0
03C0
05C0
05E0
09E0
08E0
08F0
10F0
1FF0
2078
2038
203C
F8FE
ENDCHAR
STARTCHAR uni0201
ENCODING 513
SWIDTH 541 0
DWIDTH 11 0
BBX 10 16 1 0
BITMAP
CE00
EE00
7700
1980
0000
0000
3E00
6300
6380
6380
0F80
7380
E380
E380
E780
7BC0
ENDCHAR
STARTCHAR uni0202
ENCODING 514
SWIDTH 715 0
DWIDTH 15 0
BBX 15 19 0 0
BITMAP
03C0
07E0
0010
0100
0180
0180
03C0
03C0
05C0
05E0
09E0
08E0
08F0
10F0
1FF0
2078
2038
203C
F8FE
ENDCHAR
STARTCHAR uni0203
ENCODING 515
SWIDTH 541 0
DWIDTH 11 0
BBX 10 16 1 0
BITMAP
1E00
3F00
6300
4100
0000
0000
3E00
6300
6380
6380
0F80
7380
E380
E380
E780
7BC0
ENDCHAR
STARTCHAR uni0204
ENCODING 516
SWIDTH 696 0
DWIDTH 15 0
BBX 14 20 0 0
BITMAP
3180
3DC0
0E70
0000
FFFC
3C0C
3C0C
3C04
3C00
3C40
3C40
3CC0
3FC0
3C40
3C40
3C44
3C04
3C0C
3C0C
FFFC
ENDCHAR
STARTCHAR uni0205
ENCODING 517
SWIDTH 537 0
DWIDTH 11 0
BBX 9 16 1 0
BITMAP
CC00
EE00
7700
1980
0000
0000
1E00
7380
6180
E180
FF80
E000
E000
6080
7080
1F00
ENDCHAR
STARTCHAR uni0206
ENCODING 518
SWIDTH 696 0
DWIDTH 15 0
BBX 14 20 0 0
BITMAP
0780
0FC0
0860
0000
FFFC
3C0C
3C0C
3C04
3C00
3C40
3C40
3CC0
3FC0
3C40
3C40
3C44
3C04
3C0C
3C0C
FFFC
ENDCHAR
STARTCHAR uni0207
ENCODING 519
SWIDTH 537 0
DWIDTH 11 0
BBX 9 16 1 0
BITMAP
1E00
3F00
6300
4100
0000
0000
1E00
7380
6180
E180
FF80
E000
E000
6080
7080
1F00
ENDCHAR
STARTCHAR uni0208
ENCODING 520
SWIDTH 386 0
DWIDTH 8 0
BBX 10 20 -1 0
BITMAP
CE00
EF00
39C0
0000
7F80
1E00
1E00
1E00
1E00
1E00
1E00
1E00
1E00
1E00
1E00
1E00
1E00
1E00
1E00
7F80
ENDCHAR
STARTCHAR uni0209
ENCODING 521
SWIDTH 319 0
DWIDTH 7 0
BBX 9 16 -1 0
BITMAP
CC00
EE00
7700
3100
0080
0000
7C00
1C00
1C00
1C00
1C00
1C00
1C00
1C00
1C00
7E00
ENDCHAR
STARTCHAR uni020A
ENCODING 522
SWIDTH 386 0
DWIDTH 8 0
BBX 8 20 0 0
BITMAP
3C
7E
42
00
FF
3C
3C
3C
3C
3C
3C
3C
3C
3C
3C
3C
3C
3C
3C
FF
ENDCHAR
STARTCHAR uni020B
ENCODING 523
SWIDTH 319 0
DWIDTH 7 0
BBX 7 16 0 0
BITMAP
78
FC
86
82
00
00
F8
38
38
38
38
38
38
38
38
FC
ENDCHAR
STARTCHAR uni020C
ENCODING 524
SWIDTH 823 0
DWIDTH 17 0
BBX 15 20 1 0
BITMAP
3180
3DE0
0770
0000
07C0
1830
3018
701C
701E
F01E
F01E
F01E
F01E
F01E
F01E
701E
701C
3818
1830
07C0
ENDCHAR
STARTCHAR uni020D
ENCODING 525
SWIDTH 589 0
DWIDTH 12 0
BBX 10 16 1 0
BITMAP
6600
7700
3380
1980
0000
0000
1F00
7180
61C0
E1C0
E1C0
E1C0
E1C0
61C0
7180
1F00
ENDCHAR
STARTCHAR uni020E
ENCODING 526
SWIDTH 823 0
DWIDTH 17 0
BBX 15 19 1 0
BITMAP
07C0
0FE0
0820
07C0
1830
3018
701C
701E
F01E
F01E
F01E
F01E
F01E
F01E
701E
701C
3818
1830
07C0
ENDCHAR
STARTCHAR uni020F
ENCODING 527
SWIDTH 589 0
DWIDTH 12 0
BBX 10 16 1 0
BITMAP
1E00
3F00
2180
2080
0000
0000
1F00
7180
61C0
E1C0
E1C0
E1C0
E1C0
61C0
7180
1F00
ENDCHAR
STARTCHAR uni0210
ENCODING 528
SWIDTH 740 0
DWIDTH 16 0
BBX 16 20 0 0
BITMAP
1980
3DE0
0770
0000
FFF0
3C38
3C3C
3C3C
3C3C
3C3C
3C78
3FC0
3C70
3C78
3C78
3C3C
3C3C
3C3C
3C3C
FF1F
ENDCHAR
STARTCHAR uni0211
ENCODING 529
SWIDTH 506 0
DWIDTH 11 0
BBX 10 16 0 0
BITMAP
6600
7700
3380
1980
0040
0000
FB80
3DC0
3DC0
3880
3800
3800
3800
3800
3800
FC00
ENDCHAR
STARTCHAR uni0212
ENCODING 530
SWIDTH 740 0
DWIDTH 16 0
BBX 16 20 0 0
BITMAP
03C0
07E0
0C20
0000
FFF0
3C38
3C3C
3C3C
3C3C
3C3C
3C78
3FC0
3C70
3C78
3C78
3C3C
3C3C
3C3C
3C3C
FF1F
ENDCHAR
STARTCHAR uni0213
ENCODING 531
SWIDTH 506 0
DWIDTH 11 0
BBX 10 16 0 0
BITMAP
1E00
3F00
2180
2080
0000
0000
FB80
3DC0
3DC0
3880
3800
3800
3800
3800
3800
FC00
ENDCHAR
STARTCHAR uni0214
ENCODING 532
SWIDTH 774 0
DWIDTH 16 0
BBX 16 20 0 0
BITMAP
18C0
1FE0
0738
0000
FF1F
3C04
3C04
3C04
3C04
3C04
3C04
3C04
3C04
3C04
3C04
3C04
3C04
1C04
1E08
07F0
ENDCHAR
STARTCHAR uni0215
ENCODING 533
SWIDTH 613 0
DWIDTH 13 0
BBX 13 16 0 0
BITMAP
3300
3B80
1DC0
0C60
0000
0000
FBE0
38E0
38E0
38E0
38E0
38E0
38E0
38E0
39E0
1EF8
ENDCHAR
STARTCHAR uni0216
ENCODING 534
SWIDTH 774 0
DWIDTH 16 0
BBX 16 20 0 0
BITMAP
01E0
03F8
0208
0000
FF1F
3C04
3C04
3C04
3C04
3C04
3C04
3C04
3C04
3C04
3C04
3C04
3C04
1C04
1E08
07F0
ENDCHAR
STARTCHAR uni0217
ENCODING 535
SWIDTH 613 0
DWIDTH 13 0
BBX 13 16 0 0
BITMAP
0F00
1F80
18C0
1040
0000
0000
FBE0
38E0
38E0
38E0
38E0
38E0
38E0
38E0
39E0
1EF8
ENDCHAR
STARTCHAR Scommaaccent
ENCODING 536
SWIDTH 569 0
DWIDTH 12 0
BBX 10 23 1 -7
BITMAP
3E40
41C0
C0C0
C040
C000
FC00
FF00
7F80
3FC0
0FC0
00C0
0040
8040
8040
C080
BF00
0000
0C00
1E00
1A00
0200
0400
0800
ENDCHAR
STARTCHAR scommaaccent
ENCODING 537
SWIDTH 429 0
DWIDTH 9 0
BBX 7 17 1 -7
BITMAP
7E
C6
C2
F0
FC
7E
1E
82
82
FC
00
30
38
38
08
08
30
ENDCHAR
STARTCHAR uni021A
ENCODING 538
SWIDTH 724 0
DWIDTH 15 0
BBX 15 23 0 -7
BITMAP
FFFE
E386
C386
8382
8382
0380
0380
0380
0380
0380
0380
0380
0380
0380
0380
1FF0
0000
0100
0380
0380
0080
0080
0300
ENDCHAR
STARTCHAR uni021B
ENCODING 539
SWIDTH 354 0
DWIDTH 7 0
BBX 7 21 0 -7
BITMAP
08
18
18
38
FE
38
38
38
38
38
38
38
3A
3E
00
10
38
38
08
08
10
ENDCHAR
STARTCHAR uni0237
ENCODING 567
SWIDTH 318 0
DWIDTH 7 0
BBX 7 17 -2 -7
BITMAP
3E
0E
0E
0E
0E
0E
0E
0E
0E
0E
0E
0E
0E
4E
EC
EC
78
ENDCHAR
STARTCHAR uni0259
ENCODING 601
SWIDTH 537 0
DWIDTH 11 0
BBX 9 10 1 0
BITMAP
3C00
4300
8300
0380
0380
0380
FF80
E380
6300
3E00
ENDCHAR
STARTCHAR uni02BC
ENCODING 700
SWIDTH 186 0
DWIDTH 4 0
BBX 4 6 0 10
BITMAP
60
F0
D0
10
20
40
ENDCHAR
STARTCHAR circumflex
ENCODING 710
SWIDTH 384 0
DWIDTH 8 0
BBX 6 4 1 12
BITMAP
30
78
FC
84
ENDCHAR
STARTCHAR caron
ENCODING 711
SWIDTH 384 0
DWIDTH 8 0
BBX 6 4 1 12
BITMAP
84
EC
78
30
ENDCHAR
STARTCHAR uni02C9
ENCODING 713
SWIDTH 360 0
DWIDTH 8 0
BBX 7 2 0 13
BITMAP
FE
FE
ENDCHAR
STARTCHAR breve
ENCODING 728
SWIDTH 353 0
DWIDTH 7 0
BBX 7 4 0 12
BITMAP
82
C2
7E
3C
ENDCHAR
STARTCHAR dotaccent
ENCODING 729
SWIDTH 181 0
DWIDTH 4 0
BBX 4 3 0 12
BITMAP
E0
F0
60
ENDCHAR
STARTCHAR ring
ENCODING 730
SWIDTH 224 0
DWIDTH 5 0
BBX 4 4 0 12
BITMAP
70
D0
D0
70
ENDCHAR
STARTCHAR ogonek
ENCODING 731
SWIDTH 249 0
DWIDTH 5 0
BBX 4 5 0 -5
BITMAP
30
60
C0
C0
70
ENDCHAR
STARTCHAR tilde
ENCODING 732
SWIDTH 412 0
DWIDTH 9 0
BBX 8 3 0 12
BITMAP
39
7F
8E
ENDCHAR
STARTCHAR hungarumlaut
ENCODING 733
SWIDTH 468 0
DWIDTH 10 0
BBX 8 4 1 12
BITMAP
33
77
66
CC
ENDCHAR
STARTCHAR gravecomb
ENCODING 768
SWIDTH 0 0
DWIDTH 0 0
BBX 5 3 -10 11
BITMAP
C0
F0
38
ENDCHAR
STARTCHAR acutecomb
ENCODING 769
SWIDTH 0 0
DWIDTH 0 0
BBX 6 3 -7 11
BITMAP
18
3C
E0
ENDCHAR
STARTCHAR uni0302
ENCODING 770
SWIDTH 0 0
DWIDTH 0 0
BBX 6 2 -9 11
BITMAP
70
CC
ENDCHAR
STARTCHAR tildecomb
ENCODING 771
SWIDTH 0 0
DWIDTH 0 0
BBX 8 3 -10 12
BITMAP
71
FF
9E
ENDCHAR
STARTCHAR uni0306
ENCODING 774
SWIDTH 0 0
DWIDTH 0 0
BBX 6 3 -9 11
BITMAP
84
F8
78
ENDCHAR
STARTCHAR hookabovecomb
ENCODING 777
SWIDTH 0 0
DWIDTH 0 0
BBX 5 4 -9 11
BITMAP
70
90
D8
20
ENDCHAR
STARTCHAR uni030F
ENCODING 783
SWIDTH 0 0
DWIDTH 0 0
BBX 9 4 -10 12
BITMAP
E600
6700
3300
1980
ENDCHAR
STARTCHAR uni0311
ENCODING 785
SWIDTH 0 0
DWIDTH 0 0
BBX 7 4 -7 11
BITMAP
78
FC
86
82
ENDCHAR
STARTCHAR uni031B
ENCODING 795
SWIDTH 0 0
DWIDTH 0 0
BBX 4 2 -8 10
BITMAP
30
E0
ENDCHAR
STARTCHAR dotbelowcomb
ENCODING 803
SWIDTH 0 0
DWIDTH 0 0
BBX 3 3 -8 -5
BITMAP
E0
E0
E0
ENDCHAR
STARTCHAR uni0326
ENCODING 806
SWIDTH 0 0
DWIDTH 0 0
BBX 4 6 -4 -7
BITMAP
60
F0
50
10
20
40
ENDCHAR
STARTCHAR uni0335
ENCODING 821
SWIDTH 0 0
DWIDTH 0 0
BBX 8 1 -9 0
BITMAP
FF
ENDCHAR
STARTCHAR uni0394
ENCODING 916
SWIDTH 727 0
DWIDTH 15 0
BBX 13 15 1 0
BITMAP
0300
0700
0700
0F80
0B80
1BC0
13C0
11E0
31E0
20E0
60F0
4070
C078
FFF8
FFF8
ENDCHAR
STARTCHAR uni03A9
ENCODING 937
SWIDTH 812 0
DWIDTH 17 0
BBX 15 15 1 0
BITMAP
07C0
1C70
3838
783C
701C
701C
F01E
701C
701C
783C
3838
9832
CC46
FC7E
FEFE
ENDCHAR
STARTCHAR uni03BC
ENCODING 956
SWIDTH 613 0
DWIDTH 13 0
BBX 13 16 0 -6
BITMAP
FBE0
38E0
38E0
38E0
38E0
38E0
38E0
38E0
39E0
3EF8
2000
6000
6000
7000
7000
2000
ENDCHAR
STARTCHAR pi
ENCODING 960
SWIDTH 652 0
DWIDTH 14 0
BBX 12 11 1 0
BITMAP
0010
7FF0
FFF0
91C0
11C0
11C0
33C0
33C0
21C0
61F0
61E0
ENDCHAR
STARTCHAR uni1E0C
ENCODING 7692
SWIDTH 798 0
DWIDTH 17 0
BBX 16 21 0 -5
BITMAP
FFE0
3C18
3C1C
3C0E
3C0E
3C0F
3C0F
3C0F
3C0F
3C0F
3C0F
3C0E
3C0E
3C1C
3C18
FFE0
0000
0000
01C0
01C0
01C0
ENDCHAR
STARTCHAR uni1E0D
ENCODING 7693
SWIDTH 631 0
DWIDTH 13 0
BBX 12 21 1 -5
BITMAP
07C0
01C0
01C0
01C0
01C0
01C0
3DC0
73C0
61C0
E1C0
E1C0
E1C0
E1C0
E1C0
73C0
3DF0
0000
0000
0E00
0E00
0E00
ENDCHAR
STARTCHAR uni1E24
ENCODING 7716
SWIDTH 826 0
DWIDTH 17 0
BBX 17 21 0 -5
BITMAP
FF3F80
3C0E00
3C0E00
3C0E00
3C0E00
3C0E00
3C0E00
3FFE00
3C0E00
3C0E00
3C0E00
3C0E00
3C0E00
3C0E00
3C0E00
FF3F80
000000
000000
01C000
01C000
01C000
ENDCHAR
STARTCHAR uni1E25
ENCODING 7717
SWIDTH 619 0
DWIDTH 13 0
BBX 13 21 0 -5
BITMAP
F800
3800
3800
3800
3800
3800
3BC0
3CE0
3CE0
38E0
38E0
38E0
38E0
38E0
38E0
FDF8
0000
0000
0700
0700
0700
ENDCHAR
STARTCHAR uni1E44
ENCODING 7748
SWIDTH 791 0
DWIDTH 17 0
BBX 16 20 0 0
BITMAP
0180
01C0
0180
0000
FE1F
1F04
1F04
1F84
17C4
13C4
11E4
11F4
10FC
107C
107C
103C
101C
101C
100C
FC04
ENDCHAR
STARTCHAR uni1E45
ENCODING 7749
SWIDTH 614 0
DWIDTH 13 0
BBX 13 15 0 0
BITMAP
0700
0700
0700
0000
0000
FBC0
3CE0
3CE0
38E0
38E0
38E0
38E0
38E0
38E0
FDF8
ENDCHAR
STARTCHAR uni1E5A
ENCODING 7770
SWIDTH 740 0
DWIDTH 16 0
BBX 16 21 0 -5
BITMAP
FFF0
3C38
3C3C
3C3C
3C3C
3C3C
3C78
3FC0
3C70
3C78
3C78
3C3C
3C3C
3C3C
3C3C
FF1F
0000
0000
0180
0380
0380
ENDCHAR
STARTCHAR uni1E5B
ENCODING 7771
SWIDTH 506 0
DWIDTH 11 0
BBX 10 15 0 -5
BITMAP
FB80
3DC0
3DC0
3880
3800
3800
3800
3800
3800
FC00
0000
0000
0C00
0E00
0E00
ENDCHAR
STARTCHAR uni1E62
ENCODING 7778
SWIDTH 569 0
DWIDTH 12 0
BBX 10 21 1 -5
BITMAP
3E40
41C0
C0C0
C040
C000
FC00
FF00
7F80
3FC0
0FC0
00C0
0040
8040
8040
C080
BF00
0000
0000
0C00
1E00
1C00
ENDCHAR
STARTCHAR uni1E63
ENCODING 7779
SWIDTH 429 0
DWIDTH 9 0
BBX 7 15 1 -5
BITMAP
7E
C6
C2
F0
FC
7E
1E
82
82
FC
00
00
38
38
38
ENDCHAR
STARTCHAR uni1E6C
ENCODING 7788
SWIDTH 724 0
DWIDTH 15 0
BBX 15 21 0 -5
BITMAP
FFFE
E386
C386
8382
8382
0380
0380
0380
0380
0380
0380
0380
0380
0380
0380
1FF0
0000
0000
0380
0380
0380
ENDCHAR
STARTCHAR uni1E6D
ENCODING 7789
SWIDTH 354 0
DWIDTH 7 0
BBX 7 19 0 -5
BITMAP
08
18
18
38
FE
38
38
38
38
38
38
38
3A
3E
00
00
18
38
38
ENDCHAR
STARTCHAR Wgrave
ENCODING 7808
SWIDTH 1019 0
DWIDTH 21 0
BBX 22 21 0 0
BITMAP
00C000
00E000
003800
000000
000000
FFFF7C
38F410
3C7420
3C7C20
1C7820
1E3840
1E3C40
0F1C80
0F3C80
073E80
07CF00
07CF00
038F00
038600
018600
010400
ENDCHAR
STARTCHAR wgrave
ENCODING 7809
SWIDTH 690 0
DWIDTH 14 0
BBX 15 15 0 0
BITMAP
0C00
0F00
0380
0040
0000
F89E
7188
39C8
39D0
3BD0
1EF0
1CE0
1C60
0860
0800
ENDCHAR
STARTCHAR Wacute
ENCODING 7810
SWIDTH 1019 0
DWIDTH 21 0
BBX 22 20 0 0
BITMAP
001C00
007800
008000
000000
FFFF7C
38F410
3C7420
3C7C20
1C7820
1E3840
1E3C40
0F1C80
0F3C80
073E80
07CF00
07CF00
038F00
038600
018600
010400
ENDCHAR
STARTCHAR wacute
ENCODING 7811
SWIDTH 690 0
DWIDTH 14 0
BBX 15 14 0 0
BITMAP
01C0
03C0
0C00
0000
F89E
7188
39C8
39D0
3BD0
1EF0
1CE0
1C60
0860
0800
ENDCHAR
STARTCHAR Wdieresis
ENCODING 7812
SWIDTH 1019 0
DWIDTH 21 0
BBX 22 20 0 0
BITMAP
00CC00
01DC00
00CC00
000000
FFFF7C
38F410
3C7420
3C7C20
1C7820
1E3840
1E3C40
0F1C80
0F3C80
073E80
07CF00
07CF00
038F00
038600
018600
010400
ENDCHAR
STARTCHAR wdieresis
ENCODING 7813
SWIDTH 690 0
DWIDTH 14 0
BBX 15 16 0 0
BITMAP
0CC0
0EE0
0440
0000
0000
0000
F89E
7188
39C8
39D0
3BD0
1EF0
1CE0
1C60
0860
0800
ENDCHAR
STARTCHAR uni1E92
ENCODING 7826
SWIDTH 621 0
DWIDTH 13 0
BBX 13 21 0 -5
BITMAP
7FF8
60F8
60F0
41E0
01E0
03C0
0780
0780
0F00
0F00
1E00
3C08
3C08
7818
7838
FFF8
0000
0000
0700
0700
0700
ENDCHAR
STARTCHAR uni1E93
ENCODING 7827
SWIDTH 476 0
DWIDTH 10 0
BBX 8 15 1 -5
BITMAP
FF
C7
8E
9E
1C
38
79
71
E1
FF
00
00
18
3C
38
ENDCHAR
STARTCHAR uni1EA0
ENCODING 7840
SWIDTH 715 0
DWIDTH 15 0
BBX 15 21 0 -5
BITMAP
0100
0180
0180
03C0
03C0
05C0
05E0
09E0
08E0
08F0
10F0
1FF0
2078
2038
203C
F8FE
0000
0000
0380
0380
0380
ENDCHAR
STARTCHAR uni1EA1
ENCODING 7841
SWIDTH 541 0
DWIDTH 11 0
BBX 10 15 1 -5
BITMAP
3E00
6300
6380
6380
0F80
7380
E380
E380
E780
7BC0
0000
0000
1C00
1C00
1C00
ENDCHAR
STARTCHAR uni1EA2
ENCODING 7842
SWIDTH 715 0
DWIDTH 15 0
BBX 15 21 0 0
BITMAP
03C0
0240
0240
0080
0000
0100
0180
0180
03C0
03C0
05C0
05E0
09E0
08E0
08F0
10F0
1FF0
2078
2038
203C
F8FE
ENDCHAR
STARTCHAR uni1EA3
ENCODING 7843
SWIDTH 541 0
DWIDTH 11 0
BBX 10 15 1 0
BITMAP
1C00
3200
1600
0400
0000
3E00
6300
6380
6380
0F80
7380
E380
E380
E780
7BC0
ENDCHAR
STARTCHAR uni1EA4
ENCODING 7844
SWIDTH 715 0
DWIDTH 15 0
BBX 15 23 0 0
BITMAP
00E0
01E0
0600
0180
03E0
0400
0000
0100
0180
0180
03C0
03C0
05C0
05E0
09E0
08E0
08F0
10F0
1FF0
2078
2038
203C
F8FE
ENDCHAR
STARTCHAR uni1EA5
ENCODING 7845
SWIDTH 541 0
DWIDTH 11 0
BBX 10 17 1 0
BITMAP
0200
0F00
1C00
2000
1C00
3300
0000
3E00
6300
6380
6380
0F80
7380
E380
E380
E780
7BC0
ENDCHAR
STARTCHAR uni1EA6
ENCODING 7846
SWIDTH 715 0
DWIDTH 15 0
BBX 15 24 0 0
BITMAP
0600
0780
01C0
0000
0180
03E0
0400
0000
0100
0180
0180
03C0
03C0
05C0
05E0
09E0
08E0
08F0
10F0
1FF0
2078
2038
203C
F8FE
ENDCHAR
STARTCHAR uni1EA7
ENCODING 7847
SWIDTH 541 0
DWIDTH 11 0
BBX 10 17 1 0
BITMAP
3000
3C00
0200
0000
1C00
3300
0000
3E00
6300
6380
6380
0F80
7380
E380
E380
E780
7BC0
ENDCHAR
STARTCHAR uni1EA8
ENCODING 7848
SWIDTH 715 0
DWIDTH 15 0
BBX 15 24 0 0
BITMAP
0070
0048
0058
0010
0180
03E0
0400
0000
0100
0180
0180
03C0
03C0
05C0
05E0
09E0
08E0
08F0
10F0
1FF0
2078
2038
203C
F8FE
ENDCHAR
STARTCHAR uni1EA9
ENCODING 7849
SWIDTH 541 0
DWIDTH 11 0
BBX 10 18 1 0
BITMAP
0380
06C0
06C0
0080
0000
1C00
3300
0000
3E00
6300
6380
6380
0F80
7380
E380
E380
E780
7BC0
ENDCHAR
STARTCHAR uni1EAA
ENCODING 7850
SWIDTH 715 0
DWIDTH 15 0
BBX 15 24 0 0
BITMAP
0710
0FF0
08E0
0000
0180
03E0
0400
0000
0100
0180
0180
03C0
03C0
05C0
05E0
09E0
08E0
08F0
10F0
1FF0
2078
2038
203C
F8FE
ENDCHAR
STARTCHAR uni1EAB
ENCODING 7851
SWIDTH 541 0
DWIDTH 11 0
BBX 10 18 1 0
BITMAP
3880
7F00
4E00
0000
0000
1C00
3300
0000
3E00
6300
6380
6380
0F80
7380
E380
E380
E780
7BC0
ENDCHAR
STARTCHAR uni1EAC
ENCODING 7852
SWIDTH 715 0
DWIDTH 15 0
BBX 15 25 0 -5
BITMAP
0180
03E0
0400
0000
0100
0180
0180
03C0
03C0
05C0
05E0
09E0
08E0
08F0
10F0
1FF0
2078
2038
203C
F8FE
0000
0000
0380
0380
0380
ENDCHAR
STARTCHAR uni1EAD
ENCODING 7853
SWIDTH 541 0
DWIDTH 11 0
BBX 10 18 1 -5
BITMAP
1C00
3300
0000
3E00
6300
6380
6380
0F80
7380
E380
E380
E780
7BC0
0000
0000
1C00
1C00
1C00
ENDCHAR
STARTCHAR uni1EAE
ENCODING 7854
SWIDTH 715 0
DWIDTH 15 0
BBX 15 24 0 0
BITMAP
00E0
01E0
0600
0000
0420
07E0
03C0
0000
0100
0180
0180
03C0
03C0
05C0
05E0
09E0
08E0
08F0
10F0
1FF0
2078
2038
203C
F8FE
ENDCHAR
STARTCHAR uni1EAF
ENCODING 7855
SWIDTH 541 0
DWIDTH 11 0
BBX 10 18 1 0
BITMAP
0700
1E00
3000
0000
2100
3E00
1C00
0000
3E00
6300
6380
6380
0F80
7380
E380
E380
E780
7BC0
ENDCHAR
STARTCHAR uni1EB0
ENCODING 7856
SWIDTH 715 0
DWIDTH 15 0
BBX 15 24 0 0
BITMAP
0600
0780
03C0
0000
0420
07E0
03C0
0000
0100
0180
0180
03C0
03C0
05C0
05E0
09E0
08E0
08F0
10F0
1FF0
2078
2038
203C
F8FE
ENDCHAR
STARTCHAR uni1EB1
ENCODING 7857
SWIDTH 541 0
DWIDTH 11 0
BBX 10 18 1 0
BITMAP
3000
3800
1E00
0000
2100
3E00
1C00
0000
3E00
6300
6380
6380
0F80
7380
E380
E380
E780
7BC0
ENDCHAR
STARTCHAR uni1EB2
ENCODING 7858
SWIDTH 715 0
DWIDTH 15 0
BBX 15 24 0 0
BITMAP
0380
0640
06C0
0080
0420
07E0
03C0
0000
0100
0180
0180
03C0
03C0
05C0
05E0
09E0
08E0
08F0
10F0
1FF0
2078
2038
203C
F8FE
ENDCHAR
STARTCHAR uni1EB3
ENCODING 7859
SWIDTH 541 0
DWIDTH 11 0
BBX 10 18 1 0
BITMAP
1C00
2400
3400
0800
2100
3E00
1C00
0000
3E00
6300
6380
6380
0F80
7380
E380
E380
E780
7BC0
ENDCHAR
STARTCHAR uni1EB4
ENCODING 7860
SWIDTH 715 0
DWIDTH 15 0
BBX 15 24 0 0
BITMAP
0710
0FF0
08E0
0000
0420
07E0
03C0
0000
0100
0180
0180
03C0
03C0
05C0
05E0
09E0
08E0
08F0
10F0
1FF0
2078
2038
203C
F8FE
ENDCHAR
STARTCHAR uni1EB5
ENCODING 7861
SWIDTH 541 0
DWIDTH 11 0
BBX 10 18 1 0
BITMAP
3880
7F00
4E00
0000
2100
3E00
1C00
0000
3E00
6300
6380
6380
0F80
7380
E380
E380
E780
7BC0
ENDCHAR
STARTCHAR uni1EB6
ENCODING 7862
SWIDTH 715 0
DWIDTH 15 0
BBX 15 25 0 -5
BITMAP
0420
07E0
03C0
0000
0100
0180
0180
03C0
03C0
05C0
05E0
09E0
08E0
08F0
10F0
1FF0
2078
2038
203C
F8FE
0000
0000
0380
0380
0380
ENDCHAR
STARTCHAR uni1EB7
ENCODING 7863
SWIDTH 541 0
DWIDTH 11 0
BBX 10 19 1 -5
BITMAP
2100
3E00
1C00
0000
3E00
6300
6380
6380
0F80
7380
E380
E380
E780
7BC0
0000
0000
1C00
1C00
1C00
ENDCHAR
STARTCHAR uni1EB8
ENCODING 7864
SWIDTH 696 0
DWIDTH 15 0
BBX 14 21 0 -5
BITMAP
FFFC
3C0C
3C0C
3C04
3C00
3C40
3C40
3CC0
3FC0
3C40
3C40
3C44
3C04
3C0C
3C0C
FFFC
0000
0000
0300
0380
0380
ENDCHAR
STARTCHAR uni1EB9
ENCODING 7865
SWIDTH 537 0
DWIDTH 11 0
BBX 9 15 1 -5
BITMAP
1E00
7380
6180
E180
FF80
E000
E000
6080
7080
1F00
0000
0000
1C00
1C00
1C00
ENDCHAR
STARTCHAR uni1EBA
ENCODING 7866
SWIDTH 696 0
DWIDTH 15 0
BBX 14 21 0 0
BITMAP
0380
0480
0680
0100
0000
FFFC
3C0C
3C0C
3C04
3C00
3C40
3C40
3CC0
3FC0
3C40
3C40
3C44
3C04
3C0C
3C0C
FFFC
ENDCHAR
STARTCHAR uni1EBB
ENCODING 7867
SWIDTH 537 0
DWIDTH 11 0
BBX 9 15 1 0
BITMAP
1C00
3600
3600
0400
0000
1E00
7380
6180
E180
FF80
E000
E000
6080
7080
1F00
ENDCHAR
STARTCHAR uni1EBC
ENCODING 7868
SWIDTH 696 0
DWIDTH 15 0
BBX 14 21 0 0
BITMAP
0720
0FE0
11C0
0000
0000
FFFC
3C0C
3C0C
3C04
3C00
3C40
3C40
3CC0
3FC0
3C40
3C40
3C44
3C04
3C0C
3C0C
FFFC
ENDCHAR
STARTCHAR uni1EBD
ENCODING 7869
SWIDTH 537 0
DWIDTH 11 0
BBX 9 15 1 0
BITMAP
3880
7F00
0E00
0000
0000
1E00
7380
6180
E180
FF80
E000
E000
6080
7080
1F00
ENDCHAR
STARTCHAR uni1EBE
ENCODING 7870
SWIDTH 696 0
DWIDTH 15 0
BBX 14 23 0 0
BITMAP
01C0
03C0
0C00
0380
07C0
0800
0000
FFFC
3C0C
3C0C
3C04
3C00
3C40
3C40
3CC0
3FC0
3C40
3C40
3C44
3C04
3C0C
3C0C
FFFC
ENDCHAR
STARTCHAR uni1EBF
ENCODING 7871
SWIDTH 537 0
DWIDTH 11 0
BBX 9 17 1 0
BITMAP
0200
0F00
1C00
2000
1C00
3300
0000
1E00
7380
6180
E180
FF80
E000
E000
6080
7080
1F00
ENDCHAR
STARTCHAR uni1EC0
ENCODING 7872
SWIDTH 696 0
DWIDTH 15 0
BBX 14 24 0 0
BITMAP
0400
0F00
0380
0040
0380
07C0
0800
0000
FFFC
3C0C
3C0C
3C04
3C00
3C40
3C40
3CC0
3FC0
3C40
3C40
3C44
3C04
3C0C
3C0C
FFFC
ENDCHAR
STARTCHAR uni1EC1
ENCODING 7873
SWIDTH 537 0
DWIDTH 11 0
BBX 9 17 1 0
BITMAP
3000
3C00
0200
0000
1C00
3300
0000
1E00
7380
6180
E180
FF80
E000
E000
6080
7080
1F00
ENDCHAR
STARTCHAR uni1EC2
ENCODING 7874
SWIDTH 696 0
DWIDTH 15 0
BBX 14 24 0 0
BITMAP
0070
0090
00D0
0020
0380
07C0
0800
0000
FFFC
3C0C
3C0C
3C04
3C00
3C40
3C40
3CC0
3FC0
3C40
3C40
3C44
3C04
3C0C
3C0C
FFFC
ENDCHAR
STARTCHAR uni1EC3
ENCODING 7875
SWIDTH 537 0
DWIDTH 11 0
BBX 10 18 1 0
BITMAP
0380
06C0
06C0
0180
0000
1C00
3300
0000
1E00
7380
6180
E180
FF80
E000
E000
6080
7080
1F00
ENDCHAR
STARTCHAR uni1EC4
ENCODING 7876
SWIDTH 696 0
DWIDTH 15 0
BBX 14 24 0 0
BITMAP
0720
0FE0
11C0
0000
0380
07C0
0800
0000
FFFC
3C0C
3C0C
3C04
3C00
3C40
3C40
3CC0
3FC0
3C40
3C40
3C44
3C04
3C0C
3C0C
FFFC
ENDCHAR
STARTCHAR uni1EC5
ENCODING 7877
SWIDTH 537 0
DWIDTH 11 0
BBX 9 18 1 0
BITMAP
3880
7F00
0E00
0000
0000
1C00
3300
0000
1E00
7380
6180
E180
FF80
E000
E000
6080
7080
1F00
ENDCHAR
STARTCHAR uni1EC6
ENCODING 7878
SWIDTH 696 0
DWIDTH 15 0
BBX 14 25 0 -5
BITMAP
0380
07C0
0800
0000
FFFC
3C0C
3C0C
3C04
3C00
3C40
3C40
3CC0
3FC0
3C40
3C40
3C44
3C04
3C0C
3C0C
FFFC
0000
0000
0300
0380
0380
ENDCHAR
STARTCHAR uni1EC7
ENCODING 7879
SWIDTH 537 0
DWIDTH 11 0
BBX 9 18 1 -5
BITMAP
1C00
3300
0000
1E00
7380
6180
E180
FF80
E000
E000
6080
7080
1F00
0000
0000
1C00
1C00
1C00
ENDCHAR
STARTCHAR uni1EC8
ENCODING 7880
SWIDTH 386 0
DWIDTH 8 0
BBX 8 21 0 0
BITMAP
3C
24
2C
08
00
FF
3C
3C
3C
3C
3C
3C
3C
3C
3C
3C
3C
3C
3C
3C
FF
ENDCHAR
STARTCHAR uni1EC9
ENCODING 7881
SWIDTH 319 0
DWIDTH 7 0
BBX 6 15 0 0
BITMAP
38
4C
68
10
00
F8
38
38
38
38
38
38
38
38
FC
ENDCHAR
STARTCHAR uni1ECA
ENCODING 7882
SWIDTH 386 0
DWIDTH 8 0
BBX 8 21 0 -5
BITMAP
FF
3C
3C
3C
3C
3C
3C
3C
3C
3C
3C
3C
3C
3C
3C
FF
00
00
18
3C
1C
ENDCHAR
STARTCHAR uni1ECB
ENCODING 7883
SWIDTH 319 0
DWIDTH 7 0
BBX 6 21 0 -5
BITMAP
38
38
38
00
00
00
F8
38
38
38
38
38
38
38
38
FC
00
00
38
38
38
ENDCHAR
STARTCHAR uni1ECC
ENCODING 7884
SWIDTH 823 0
DWIDTH 17 0
BBX 15 21 1 -5
BITMAP
07C0
1830
3018
701C
701E
F01E
F01E
F01E
F01E
F01E
F01E
701E
701C
3818
1830
07C0
0000
0000
0380
0380
0380
ENDCHAR
STARTCHAR uni1ECD
ENCODING 7885
SWIDTH 589 0
DWIDTH 12 0
BBX 10 15 1 -5
BITMAP
1F00
7180
61C0
E1C0
E1C0
E1C0
E1C0
61C0
7180
1F00
0000
0000
0C00
1E00
0E00
ENDCHAR
STARTCHAR uni1ECE
ENCODING 7886
SWIDTH 823 0
DWIDTH 17 0
BBX 15 21 1 0
BITMAP
0380
06C0
06C0
0100
0000
07C0
1830
3018
701C
701E
F01E
F01E
F01E
F01E
F01E
F01E
701E
701C
3818
1830
07C0
ENDCHAR
STARTCHAR uni1ECF
ENCODING 7887
SWIDTH 589 0
DWIDTH 12 0
BBX 10 15 1 0
BITMAP
1E00
1200
1A00
0400
0000
1F00
7180
61C0
E1C0
E1C0
E1C0
E1C0
61C0
7180
1F00
ENDCHAR
STARTCHAR uni1ED0
ENCODING 7888
SWIDTH 823 0
DWIDTH 17 0
BBX 15 23 1 0
BITMAP
00E0
03C0
0400
0380
07C0
0020
0000
07C0
1830
3018
701C
701E
F01E
F01E
F01E
F01E
F01E
F01E
701E
701C
3818
1830
07C0
ENDCHAR
STARTCHAR uni1ED1
ENCODING 7889
SWIDTH 589 0
DWIDTH 12 0
BBX 10 17 1 0
BITMAP
0300
0700
1E00
0000
1E00
3300
0000
1F00
7180
61C0
E1C0
E1C0
E1C0
E1C0
61C0
7180
1F00
ENDCHAR
STARTCHAR uni1ED2
ENCODING 7890
SWIDTH 823 0
DWIDTH 17 0
BBX 15 24 1 0
BITMAP
0600
0700
03C0
0000
0380
07C0
0020
0000
07C0
1830
3018
701C
701E
F01E
F01E
F01E
F01E
F01E
F01E
701E
701C
3818
1830
07C0
ENDCHAR
STARTCHAR uni1ED3
ENCODING 7891
SWIDTH 589 0
DWIDTH 12 0
BBX 10 17 1 0
BITMAP
3800
3C00
0300
0000
1E00
3300
0000
1F00
7180
61C0
E1C0
E1C0
E1C0
E1C0
61C0
7180
1F00
ENDCHAR
STARTCHAR uni1ED4
ENCODING 7892
SWIDTH 823 0
DWIDTH 17 0
BBX 15 24 1 0
BITMAP
0070
00D8
00D8
0030
0380
07C0
0020
0000
07C0
1830
3018
701C
701E
F01E
F01E
F01E
F01E
F01E
F01E
701E
701C
3818
1830
07C0
ENDCHAR
STARTCHAR uni1ED5
ENCODING 7893
SWIDTH 589 0
DWIDTH 12 0
BBX 10 18 1 0
BITMAP
01C0
0240
0340
0080
0000
1E00
3300
0000
1F00
7180
61C0
E1C0
E1C0
E1C0
E1C0
61C0
7180
1F00
ENDCHAR
STARTCHAR uni1ED6
ENCODING 7894
SWIDTH 823 0
DWIDTH 17 0
BBX 15 24 1 0
BITMAP
0710
0FE0
01C0
0000
0380
07C0
0020
0000
07C0
1830
3018
701C
701E
F01E
F01E
F01E
F01E
F01E
F01E
701E
701C
3818
1830
07C0
ENDCHAR
STARTCHAR uni1ED7
ENCODING 7895
SWIDTH 589 0
DWIDTH 12 0
BBX 10 18 1 0
BITMAP
3C80
3F80
4700
0000
0000
1E00
3300
0000
1F00
7180
61C0
E1C0
E1C0
E1C0
E1C0
61C0
7180
1F00
ENDCHAR
STARTCHAR uni1ED8
ENCODING 7896
SWIDTH 823 0
DWIDTH 17 0
BBX 15 25 1 -5
BITMAP
0380
07C0
0020
0000
07C0
1830
3018
701C
701E
F01E
F01E
F01E
F01E
F01E
F01E
701E
701C
3818
1830
07C0
0000
0000
0380
0380
0380
ENDCHAR
STARTCHAR uni1ED9
ENCODING 7897
SWIDTH 589 0
DWIDTH 12 0
BBX 10 18 1 -5
BITMAP
1E00
3300
0000
1F00
7180
61C0
E1C0
E1C0
E1C0
E1C0
61C0
7180
1F00
0000
0000
0C00
1E00
0E00
ENDCHAR
STARTCHAR uni1EDA
ENCODING 7898
SWIDTH 823 0
DWIDTH 17 0
BBX 15 20 1 0
BITMAP
00E0
03E0
0618
0010
07E0
1830
3018
701C
701E
F01E
F01E
F01E
F01E
F01E
F01E
701E
701C
3818
1830
07C0
ENDCHAR
STARTCHAR uni1EDB
ENCODING 7899
SWIDTH 589 0
DWIDTH 12 0
BBX 10 14 1 0
BITMAP
0300
0F00
1800
0040
1EC0
7180
61C0
E1C0
E1C0
E1C0
E1C0
61C0
7180
1F00
ENDCHAR
STARTCHAR uni1EDC
ENCODING 7900
SWIDTH 823 0
DWIDTH 17 0
BBX 15 21 1 0
BITMAP
0400
0700
03C0
0018
0010
07E0
1830
3018
701C
701E
F01E
F01E
F01E
F01E
F01E
F01E
701E
701C
3818
1830
07C0
ENDCHAR
STARTCHAR uni1EDD
ENCODING 7901
SWIDTH 589 0
DWIDTH 12 0
BBX 10 15 1 0
BITMAP
1000
3800
1E00
0000
0040
1EC0
7180
61C0
E1C0
E1C0
E1C0
E1C0
61C0
7180
1F00
ENDCHAR
STARTCHAR uni1EDE
ENCODING 7902
SWIDTH 823 0
DWIDTH 17 0
BBX 15 21 1 0
BITMAP
0380
06C0
06C0
0118
0010
07E0
1830
3018
701C
701E
F01E
F01E
F01E
F01E
F01E
F01E
701E
701C
3818
1830
07C0
ENDCHAR
STARTCHAR uni1EDF
ENCODING 7903
SWIDTH 589 0
DWIDTH 12 0
BBX 10 15 1 0
BITMAP
1E00
1200
1A00
0400
0040
1EC0
7180
61C0
E1C0
E1C0
E1C0
E1C0
61C0
7180
1F00
ENDCHAR
STARTCHAR uni1EE0
ENCODING 7904
SWIDTH 823 0
DWIDTH 17 0
BBX 15 21 1 0
BITMAP
0710
0FE0
01C0
0018
0010
07E0
1830
3018
701C
701E
F01E
F01E
F01E
F01E
F01E
F01E
701E
701C
3818
1830
07C0
ENDCHAR
STARTCHAR uni1EE1
ENCODING 7905
SWIDTH 589 0
DWIDTH 12 0
BBX 10 15 1 0
BITMAP
3C80
3F80
4700
0000
0040
1EC0
7180
61C0
E1C0
E1C0
E1C0
E1C0
61C0
7180
1F00
ENDCHAR
STARTCHAR uni1EE2
ENCODING 7906
SWIDTH 823 0
DWIDTH 17 0
BBX 15 23 1 -5
BITMAP
0018
0010
07E0
1830
3018
701C
701E
F01E
F01E
F01E
F01E
F01E
F01E
701E
701C
3818
1830
07C0
0000
0000
0380
0380
0380
ENDCHAR
STARTCHAR uni1EE3
ENCODING 7907
SWIDTH 589 0
DWIDTH 12 0
BBX 10 16 1 -5
BITMAP
0040
1EC0
7180
61C0
E1C0
E1C0
E1C0
E1C0
61C0
7180
1F00
0000
0000
0C00
1E00
0E00
ENDCHAR
STARTCHAR uni1EE4
ENCODING 7908
SWIDTH 774 0
DWIDTH 16 0
BBX 16 21 0 -5
BITMAP
FF1F
3C04
3C04
3C04
3C04
3C04
3C04
3C04
3C04
3C04
3C04
3C04
3C04
1C04
1E08
07F0
0000
0000
0180
03C0
01C0
ENDCHAR
STARTCHAR uni1EE5
ENCODING 7909
SWIDTH 613 0
DWIDTH 13 0
BBX 13 15 0 -5
BITMAP
FBE0
38E0
38E0
38E0
38E0
38E0
38E0
38E0
39E0
1EF8
0000
0000
0700
0700
0700
ENDCHAR
STARTCHAR uni1EE6
ENCODING 7910
SWIDTH 774 0
DWIDTH 16 0
BBX 16 21 0 0
BITMAP
03C0
0240
0340
0080
0000
FF1F
3C04
3C04
3C04
3C04
3C04
3C04
3C04
3C04
3C04
3C04
3C04
3C04
1C04
1E08
07F0
ENDCHAR
STARTCHAR uni1EE7
ENCODING 7911
SWIDTH 613 0
DWIDTH 13 0
BBX 13 15 0 0
BITMAP
0700
0980
0D80
0200
0000
FBE0
38E0
38E0
38E0
38E0
38E0
38E0
38E0
39E0
1EF8
ENDCHAR
STARTCHAR uni1EE8
ENCODING 7912
SWIDTH 774 0
DWIDTH 16 0
BBX 17 20 0 0
BITMAP
00E000
01E000
060180
000180
FF1F00
3C0400
3C0400
3C0400
3C0400
3C0400
3C0400
3C0400
3C0400
3C0400
3C0400
3C0400
3C0400
1C0400
1E0800
07F000
ENDCHAR
STARTCHAR uni1EE9
ENCODING 7913
SWIDTH 613 0
DWIDTH 13 0
BBX 14 14 0 0
BITMAP
0180
0780
180C
0008
FBF8
38E0
38E0
38E0
38E0
38E0
38E0
38E0
39E0
1EF8
ENDCHAR
STARTCHAR uni1EEA
ENCODING 7914
SWIDTH 774 0
DWIDTH 16 0
BBX 17 21 0 0
BITMAP
060000
078000
01C000
000180
000180
FF1F00
3C0400
3C0400
3C0400
3C0400
3C0400
3C0400
3C0400
3C0400
3C0400
3C0400
3C0400
3C0400
1C0400
1E0800
07F000
ENDCHAR
STARTCHAR uni1EEB
ENCODING 7915
SWIDTH 613 0
DWIDTH 13 0
BBX 14 15 0 0
BITMAP
0C00
1E00
0780
000C
0008
FBF8
38E0
38E0
38E0
38E0
38E0
38E0
38E0
39E0
1EF8
ENDCHAR
STARTCHAR uni1EEC
ENCODING 7916
SWIDTH 774 0
DWIDTH 16 0
BBX 17 21 0 0
BITMAP
00E000
013000
01B000
004180
000180
FF1F00
3C0400
3C0400
3C0400
3C0400
3C0400
3C0400
3C0400
3C0400
3C0400
3C0400
3C0400
3C0400
1C0400
1E0800
07F000
ENDCHAR
STARTCHAR uni1EED
ENCODING 7917
SWIDTH 613 0
DWIDTH 13 0
BBX 13 15 0 0
BITMAP
0700
0980
0D80
0200
0008
FBF8
38E0
38E0
38E0
38E0
38E0
38E0
38E0
39E0
1EF8
ENDCHAR
STARTCHAR uni1EEE
ENCODING 7918
SWIDTH 774 0
DWIDTH 16 0
BBX 17 21 0 0
BITMAP
01C400
03F800
027000
000180
000180
FF1F00
3C0400
3C0400
3C0400
3C0400
3C0400
3C0400
3C0400
3C0400
3C0400
3C0400
3C0400
3C0400
1C0400
1E0800
07F000
ENDCHAR
STARTCHAR uni1EEF
ENCODING 7919
SWIDTH 613 0
DWIDTH 13 0
BBX 13 15 0 0
BITMAP
0E00
1FC0
2380
0000
0008
FBF8
38E0
38E0
38E0
38E0
38E0
38E0
38E0
39E0
1EF8
ENDCHAR
STARTCHAR uni1EF0
ENCODING 7920
SWIDTH 774 0
DWIDTH 16 0
BBX 17 23 0 -5
BITMAP
000180
000180
FF1F00
3C0400
3C0400
3C0400
3C0400
3C0400
3C0400
3C0400
3C0400
3C0400
3C0400
3C0400
3C0400
1C0400
1E0800
07F000
000000
000000
018000
03C000
01C000
ENDCHAR
STARTCHAR uni1EF1
ENCODING 7921
SWIDTH 613 0
DWIDTH 13 0
BBX 14 17 0 -5
BITMAP
000C
0008
FBF8
38E0
38E0
38E0
38E0
38E0
38E0
38E0
39E0
1EF8
0000
0000
0700
0700
0700
ENDCHAR
STARTCHAR Ygrave
ENCODING 7922
SWIDTH 766 0
DWIDTH 16 0
BBX 16 21 0 0
BITMAP
0600
0780
01C0
0000
0000
FF1F
3C04
1E08
1E08
0F10
0790
07A0
03E0
03C0
01C0
01C0
01C0
01C0
01C0
01C0
0FF0
ENDCHAR
STARTCHAR ygrave
ENCODING 7923
SWIDTH 501 0
DWIDTH 11 0
BBX 11 22 0 -7
BITMAP
3000
3C00
0E00
0100
0000
FDE0
7080
3880
3900
1D00
1D00
1E00
0E00
0C00
0400
0400
0800
0800
1000
D000
F000
E000
ENDCHAR
STARTCHAR uni1EF4
ENCODING 7924
SWIDTH 766 0
DWIDTH 16 0
BBX 16 21 0 -5
BITMAP
FF1F
3C04
1E08
1E08
0F10
0790
07A0
03E0
03C0
01C0
01C0
01C0
01C0
01C0
01C0
0FF0
0000
0000
0180
03C0
01C0
ENDCHAR
STARTCHAR uni1EF5
ENCODING 7925
SWIDTH 501 0
DWIDTH 11 0
BBX 11 17 0 -7
BITMAP
FDE0
7080
3880
3900
1D00
1D00
1E00
0E00
0C00
0400
0400
0800
0980
13C0
D380
F000
E000
ENDCHAR
STARTCHAR uni1EF6
ENCODING 7926
SWIDTH 766 0
DWIDTH 16 0
BBX 16 21 0 0
BITMAP
03C0
0240
02C0
0080
0000
FF1F
3C04
1E08
1E08
0F10
0790
07A0
03E0
03C0
01C0
01C0
01C0
01C0
01C0
01C0
0FF0
ENDCHAR
STARTCHAR uni1EF7
ENCODING 7927
SWIDTH 501 0
DWIDTH 11 0
BBX 11 22 0 -7
BITMAP
0E00
1200
1A00
0400
0000
FDE0
7080
3880
3900
1D00
1D00
1E00
0E00
0C00
0400
0400
0800
0800
1000
D000
F000
E000
ENDCHAR
STARTCHAR uni1EF8
ENCODING 7928
SWIDTH 766 0
DWIDTH 16 0
BBX 16 21 0 0
BITMAP
0710
0FF0
08E0
0000
0000
FF1F
3C04
1E08
1E08
0F10
0790
07A0
03E0
03C0
01C0
01C0
01C0
01C0
01C0
01C0
0FF0
ENDCHAR
STARTCHAR uni1EF9
ENCODING 7929
SWIDTH 501 0
DWIDTH 11 0
BBX 11 22 0 -7
BITMAP
1C80
3F80
4700
0000
0000
FDE0
7080
3880
3900
1D00
1D00
1E00
0E00
0C00
0400
0400
0800
0800
1000
D000
F000
E000
ENDCHAR
STARTCHAR endash
ENCODING 8211
SWIDTH 584 0
DWIDTH 12 0
BBX 12 1 0 4
BITMAP
FFF0
ENDCHAR
STARTCHAR emdash
ENCODING 8212
SWIDTH 875 0
DWIDTH 18 0
BBX 18 1 0 4
BITMAP
FFFFC0
ENDCHAR
STARTCHAR quoteleft
ENCODING 8216
SWIDTH 308 0
DWIDTH 6 0
BBX 4 8 1 8
BITMAP
20
40
40
80
B0
F0
70
20
ENDCHAR
STARTCHAR quoteright
ENCODING 8217
SWIDTH 308 0
DWIDTH 6 0
BBX 4 8 1 8
BITMAP
60
F0
F0
50
10
10
20
40
ENDCHAR
STARTCHAR quotesinglbase
ENCODING 8218
SWIDTH 308 0
DWIDTH 6 0
BBX 4 8 1 -4
BITMAP
60
F0
F0
50
10
10
20
40
ENDCHAR
STARTCHAR quotedblleft
ENCODING 8220
SWIDTH 561 0
DWIDTH 12 0
BBX 10 8 1 8
BITMAP
2080
4100
4200
8400
B580
F7C0
73C0
2180
ENDCHAR
STARTCHAR quotedblright
ENCODING 8221
SWIDTH 561 0
DWIDTH 12 0
BBX 10 8 1 8
BITMAP
6380
F780
F7C0
5340
1080
1080
2100
4000
ENDCHAR
STARTCHAR quotedblbase
ENCODING 8222
SWIDTH 561 0
DWIDTH 12 0
BBX 10 8 1 -4
BITMAP
6380
F780
F7C0
5340
1080
1080
2100
4000
ENDCHAR
STARTCHAR dagger
ENCODING 8224
SWIDTH 541 0
DWIDTH 11 0
BBX 11 22 0 -6
BITMAP
0E00
0E00
0E00
0600
4440
FFE0
64E0
0400
0400
0600
0E00
0E00
0600
0600
0400
0400
0400
0400
0400
0400
0400
0400
ENDCHAR
STARTCHAR daggerdbl
ENCODING 8225
SWIDTH 541 0
DWIDTH 11 0
BBX 11 22 0 -6
BITMAP
0E00
0E00
0E00
0600
4440
FFE0
64E0
0400
0400
0600
0E00
0E00
0600
0400
0400
64E0
FFE0
4440
0600
0E00
0E00
0E00
ENDCHAR
STARTCHAR bullet
ENCODING 8226
SWIDTH 410 0
DWIDTH 9 0
BBX 5 5 2 5
BITMAP
70
F8
F8
F0
70
ENDCHAR
STARTCHAR ellipsis
ENCODING 8230
SWIDTH 822 0
DWIDTH 17 0
BBX 15 4 1 0
BITMAP
6104
F38E
F38E
638E
ENDCHAR
STARTCHAR perthousand
ENCODING 8240
SWIDTH 1353 0
DWIDTH 28 0
BBX 27 16 1 0
BITMAP
3C0C0000
46180000
C6100000
C7300000
C7200000
C7600000
46400000
64C00000
189F0F80
01B198C0
033198E0
033198E0
063198E0
043198C0
0C3188C0
080E0780
ENDCHAR
STARTCHAR guilsinglleft
ENCODING 8249
SWIDTH 345 0
DWIDTH 7 0
BBX 4 8 2 1
BITMAP
10
20
60
E0
C0
60
20
10
ENDCHAR
STARTCHAR guilsinglright
ENCODING 8250
SWIDTH 345 0
DWIDTH 7 0
BBX 5 8 1 1
BITMAP
80
40
70
38
38
70
40
80
ENDCHAR
STARTCHAR fraction
ENCODING 8260
SWIDTH 489 0
DWIDTH 10 0
BBX 10 16 0 0
BITMAP
00C0
00C0
0180
0100
0300
0200
0600
0400
0C00
0800
1800
3000
3000
6000
4000
C000
ENDCHAR
STARTCHAR uni2070
ENCODING 8304
SWIDTH 419 0
DWIDTH 9 0
BBX 8 8 0 10
BITMAP
3C
62
63
63
E3
63
63
3E
ENDCHAR
STARTCHAR uni2074
ENCODING 8308
SWIDTH 391 0
DWIDTH 8 0
BBX 8 8 0 10
BITMAP
0C
1C
2C
4C
4C
8D
7F
1C
ENDCHAR
STARTCHAR uni2075
ENCODING 8309
SWIDTH 362 0
DWIDTH 8 0
BBX 7 8 0 10
BITMAP
7E
7C
40
7C
0E
06
E6
7C
ENDCHAR
STARTCHAR uni2076
ENCODING 8310
SWIDTH 352 0
DWIDTH 7 0
BBX 6 8 1 10
BITMAP
38
60
C0
F8
CC
CC
CC
F8
ENDCHAR
STARTCHAR uni2077
ENCODING 8311
SWIDTH 351 0
DWIDTH 7 0
BBX 7 9 0 9
BITMAP
7E
7E
84
08
08
18
18
38
10
ENDCHAR
STARTCHAR uni2078
ENCODING 8312
SWIDTH 356 0
DWIDTH 7 0
BBX 7 8 0 10
BITMAP
3C
66
66
6C
38
66
E6
7E
ENDCHAR
STARTCHAR uni2079
ENCODING 8313
SWIDTH 352 0
DWIDTH 7 0
BBX 7 8 0 10
BITMAP
38
64
C6
E6
6E
1C
0C
30
ENDCHAR
STARTCHAR uni2080
ENCODING 8320
SWIDTH 419 0
DWIDTH 9 0
BBX 8 8 0 -2
BITMAP
3E
63
63
E3
E3
63
63
3E
ENDCHAR
STARTCHAR uni2081
ENCODING 8321
SWIDTH 279 0
DWIDTH 6 0
BBX 4 8 1 -2
BITMAP
E0
60
60
60
60
60
60
F0
ENDCHAR
STARTCHAR uni2082
ENCODING 8322
SWIDTH 360 0
DWIDTH 8 0
BBX 7 9 0 -2
BITMAP
10
6E
66
66
0C
18
20
7E
FE
ENDCHAR
STARTCHAR uni2083
ENCODING 8323
SWIDTH 346 0
DWIDTH 7 0
BBX 7 8 0 -2
BITMAP
7C
6C
0C
18
0C
4E
CE
FC
ENDCHAR
STARTCHAR uni2084
ENCODING 8324
SWIDTH 391 0
DWIDTH 8 0
BBX 8 8 0 -2
BITMAP
0C
1C
2C
4C
4C
8D
7F
1C
ENDCHAR
STARTCHAR uni2085
ENCODING 8325
SWIDTH 362 0
DWIDTH 8 0
BBX 7 8 0 -2
BITMAP
7E
7C
40
7C
0E
06
E6
7C
ENDCHAR
STARTCHAR uni2086
ENCODING 8326
SWIDTH 352 0
DWIDTH 7 0
BBX 6 8 1 -2
BITMAP
38
60
C0
F8
CC
CC
CC
F8
ENDCHAR
STARTCHAR uni2087
ENCODING 8327
SWIDTH 351 0
DWIDTH 7 0
BBX 7 8 0 -2
BITMAP
7E
7E
84
08
08
18
18
38
ENDCHAR
STARTCHAR uni2088
ENCODING 8328
SWIDTH 356 0
DWIDTH 7 0
BBX 7 8 0 -2
BITMAP
7C
66
66
28
74
E6
E6
7E
ENDCHAR
STARTCHAR uni2089
ENCODING 8329
SWIDTH 352 0
DWIDTH 7 0
BBX 7 8 0 -2
BITMAP
7C
E6
C6
E6
7E
0C
08
30
ENDCHAR
STARTCHAR colonmonetary
ENCODING 8353
SWIDTH 500 0
DWIDTH 11 0
BBX 9 14 1 1
BITMAP
0500
0600
0E00
3B80
6B80
EC80
EC00
F400
F400
7880
7900
1E00
2800
2800
ENDCHAR
STARTCHAR franc
ENCODING 8355
SWIDTH 702 0
DWIDTH 15 0
BBX 14 16 0 0
BITMAP
FFFC
3C0C
3C0C
3C04
3C00
3C40
3C40
3FC0
3CC0
3C40
3C40
3C00
FF00
3C00
3C00
FF00
ENDCHAR
STARTCHAR lira
ENCODING 8356
SWIDTH 559 0
DWIDTH 12 0
BBX 11 17 0 -1
BITMAP
0380
0C40
1C20
1C60
1C60
3C00
3C00
7F80
1C00
7F80
0C00
0C00
0C20
7C20
8FE0
9BC0
6000
ENDCHAR
STARTCHAR uni20A6
ENCODING 8358
SWIDTH 743 0
DWIDTH 16 0
BBX 16 16 0 0
BITMAP
FE1F
1F04
1F04
1784
FFFF
13C4
11E4
FFFF
10F4
107C
107C
103C
101C
101C
100C
FC04
ENDCHAR
STARTCHAR uni20A9
ENCODING 8361
SWIDTH 998 0
DWIDTH 21 0
BBX 22 16 0 0
BITMAP
FFFF7C
38F410
3C7420
3C7C20
FFFFF8
1E3840
0E3C40
FFFFF8
0F3C80
073E80
07CF00
07CF00
038F00
038600
018600
010400
ENDCHAR
STARTCHAR Euro
ENCODING 8364
SWIDTH 651 0
DWIDTH 14 0
BBX 12 16 1 0
BITMAP
0790
0C70
1C30
3810
3800
7800
FFC0
7800
7800
FFC0
7800
3800
3810
1C10
1C30
07D0
ENDCHAR
STARTCHAR uni20B9
ENCODING 8377
SWIDTH 604 0
DWIDTH 13 0
BBX 12 15 1 0
BITMAP
FFF0
0780
FFF0
0780
0780
0700
FC00
0E00
0F00
0700
0780
0780
0780
0780
01E0
ENDCHAR
STARTCHAR uni20BA
ENCODING 8378
SWIDTH 576 0
DWIDTH 12 0
BBX 12 16 0 0
BITMAP
FF00
3C00
3C00
3CC0
3F00
3C00
7DC0
3F00
3C00
7CE0
3CD0
3C10
3C10
3C20
3C40
FF80
ENDCHAR
STARTCHAR uni2113
ENCODING 8467
SWIDTH 504 0
DWIDTH 11 0
BBX 10 17 0 0
BITMAP
0E00
1D00
1980
3880
3980
3900
3900
3A00
3C00
3800
3800
F800
3800
3840
3C40
1F80
0F00
ENDCHAR
STARTCHAR uni2116
ENCODING 8470
SWIDTH 1129 0
DWIDTH 24 0
BBX 23 16 0 0
BITMAP
FE1F3C
1E0466
1F0466
1F8466
17C466
13C43C
11E400
11F400
10FC00
107C00
107C00
103C00
101C00
101C00
100C00
FC0400
ENDCHAR
STARTCHAR uni2120
ENCODING 8480
SWIDTH 785 0
DWIDTH 16 0
BBX 15 8 1 8
BITMAP
7B8E
8B8C
C3DC
F2DC
7AEC
0AEC
8A6C
737E
ENDCHAR
STARTCHAR trademark
ENCODING 8482
SWIDTH 845 0
DWIDTH 18 0
BBX 16 8 1 8
BITMAP
FDC7
B4C7
316B
316B
316B
3133
3133
79BF
ENDCHAR
STARTCHAR uni2126
ENCODING 8486
SWIDTH 812 0
DWIDTH 17 0
BBX 15 15 1 0
BITMAP
07C0
1C70
3838
783C
701C
701C
F01E
701C
701C
783C
3838
9832
CC46
FC7E
FEFE
ENDCHAR
STARTCHAR estimated
ENCODING 8494
SWIDTH 898 0
DWIDTH 19 0
BBX 17 15 1 0
BITMAP
0FF800
100400
200200
600300
E00380
E00380
E00380
FFFC00
E00000
E00000
600000
600000
200200
180C00
07F000
ENDCHAR
STARTCHAR uni2153
ENCODING 8531
SWIDTH 913 0
DWIDTH 19 0
BBX 14 16 3 0
BITMAP
E060
E060
E0C0
E080
E180
E100
E300
E200
06FC
04CC
0C18
1838
180C
30CC
30CC
60F8
ENDCHAR
STARTCHAR uni2154
ENCODING 8532
SWIDTH 913 0
DWIDTH 19 0
BBX 16 16 1 0
BITMAP
3C0C
4E08
6618
6630
0C30
3260
7E40
FEC0
00BF
01B3
0106
030E
0203
0633
0C33
0C3E
ENDCHAR
STARTCHAR oneeighth
ENCODING 8539
SWIDTH 913 0
DWIDTH 19 0
BBX 14 16 3 0
BITMAP
E060
E060
E0C0
E080
E180
E100
E300
E200
06FC
04CC
0CCC
1878
18CC
30CC
30CC
6078
ENDCHAR
STARTCHAR threeeighths
ENCODING 8540
SWIDTH 913 0
DWIDTH 19 0
BBX 16 16 2 0
BITMAP
7818
DC30
1C30
3060
1840
8CC0
CC80
999C
6136
0377
0236
0614
0C3E
0C63
1863
103E
ENDCHAR
STARTCHAR fiveeighths
ENCODING 8541
SWIDTH 913 0
DWIDTH 19 0
BBX 16 16 2 0
BITMAP
FC18
FC30
8030
F860
0C40
0CC0
CC80
9D9C
6136
0377
0236
0614
0C3E
0C63
1863
183E
ENDCHAR
STARTCHAR seveneighths
ENCODING 8542
SWIDTH 913 0
DWIDTH 19 0
BBX 16 16 2 0
BITMAP
FC10
FC30
8820
0860
10C0
10C0
3180
3180
333E
0277
0636
0414
0C3E
0863
1863
103E
ENDCHAR
STARTCHAR partialdiff
ENCODING 8706
SWIDTH 616 0
DWIDTH 13 0
BBX 11 17 1 0
BITMAP
3E00
7B00
2180
00C0
00C0
00E0
00E0
1EE0
39E0
70E0
F1E0
E1E0
E1C0
E1C0
E380
6300
3E00
ENDCHAR
STARTCHAR uni2206
ENCODING 8710
SWIDTH 727 0
DWIDTH 15 0
BBX 13 15 1 0
BITMAP
0300
0700
0700
0F80
0B80
1BC0
13C0
11E0
31E0
20E0
60F0
4070
C078
FFF8
FFF8
ENDCHAR
STARTCHAR product
ENCODING 8719
SWIDTH 802 0
DWIDTH 17 0
BBX 15 18 1 -2
BITMAP
FFFE
3838
3838
3838
3838
3838
3838
3838
3838
3838
3838
3838
3838
3838
3838
3838
3838
FEFE
ENDCHAR
STARTCHAR summation
ENCODING 8721
SWIDTH 630 0
DWIDTH 13 0
BBX 12 17 1 -2
BITMAP
FFE0
F060
7860
7820
3C00
3C00
1E00
1E00
0C00
0C00
0800
1000
3030
2020
7FE0
FFE0
FFE0
ENDCHAR
STARTCHAR minus
ENCODING 8722
SWIDTH 578 0
DWIDTH 12 0
BBX 10 1 1 7
BITMAP
FFC0
ENDCHAR
STARTCHAR uni2215
ENCODING 8725
SWIDTH 489 0
DWIDTH 10 0
BBX 10 16 0 0
BITMAP
00C0
00C0
0180
0100
0300
0200
0600
0400
0C00
0800
1800
3000
3000
6000
4000
C000
ENDCHAR
STARTCHAR uni2219
ENCODING 8729
SWIDTH 274 0
DWIDTH 6 0
BBX 4 4 1 3
BITMAP
60
F0
F0
60
ENDCHAR
STARTCHAR radical
ENCODING 8730
SWIDTH 617 0
DWIDTH 13 0
BBX 12 23 1 -4
BITMAP
0030
0030
0020
0020
0020
0020
0060
0040
0040
0040
F840
3840
1CC0
1C80
1C80
0E80
0E80
0680
0780
0700
0300
0300
0100
ENDCHAR
STARTCHAR infinity
ENCODING 8734
SWIDTH 814 0
DWIDTH 17 0
BBX 15 8 1 2
BITMAP
3C38
7EFC
C3C6
C386
C386
C6C6
7C7C
1830
ENDCHAR
STARTCHAR integral
ENCODING 8747
SWIDTH 446 0
DWIDTH 9 0
BBX 11 22 -1 -4
BITMAP
03C0
0660
0E60
0E00
0E00
0E00
1E00
1E00
0E00
0E00
0E00
0E00
0E00
0E00
0E00
0E00
0E00
0E00
0E00
4C00
EC00
7800
ENDCHAR
STARTCHAR approxequal
ENCODING 8776
SWIDTH 585 0
DWIDTH 12 0
BBX 10 7 1 4
BITMAP
7840
DEC0
8780
0000
7840
DEC0
0780
ENDCHAR
STARTCHAR notequal
ENCODING 8800
SWIDTH 598 0
DWIDTH 13 0
BBX 11 11 1 2
BITMAP
0200
0200
0200
FFE0
0400
0400
0400
FFE0
0800
0800
0800
ENDCHAR
STARTCHAR lessequal
ENCODING 8804
SWIDTH 578 0
DWIDTH 12 0
BBX 10 14 1 1
BITMAP
0040
01C0
0700
1C00
7000
C000
E000
3800
0E00
0380
00C0
0000
0000
FFC0
ENDCHAR
STARTCHAR greaterequal
ENCODING 8805
SWIDTH 578 0
DWIDTH 12 0
BBX 10 14 1 1
BITMAP
8000
E000
3800
0E00
0380
00C0
01C0
0700
1C00
7000
C000
0000
0000
FFC0
ENDCHAR
STARTCHAR lozenge
ENCODING 9674
SWIDTH 633 0
DWIDTH 13 0
BBX 11 17 1 -1
BITMAP
0E00
0F00
1B00
1980
3180
30C0
60C0
6060
C060
C060
60C0
60C0
3180
3180
1B00
1B00
0E00
ENDCHAR
STARTCHAR .notdef
ENCODING -1
SWIDTH 809 0
DWIDTH 17 0
BBX 11 27 3 -7
BITMAP
FFE0
C060
C060
E0E0
E0E0
E160
D160
D160
D260
D260
CA60
CC60
CC60
C460
C460
CC60
CA60
CA60
D260
D160
D160
E160
E0E0
E0E0
C060
C060
FFE0
ENDCHAR
STARTCHAR uni1ECD.001
ENCODING -1
SWIDTH 589 0
DWIDTH 12 0
BBX 10 15 1 -5
BITMAP
1F00
7180
61C0
E1C0
E1C0
E1C0
E1C0
61C0
7180
1F00
0000
0000
0C00
1E00
0E00
ENDCHAR
STARTCHAR f_f
ENCODING -1
SWIDTH 658 0
DWIDTH 14 0
BBX 16 16 0 0
BITMAP
001E
0FB3
19F7
19F0
3870
3870
FFFC
3870
3870
3870
3870
3870
3870
3870
3870
FFFC
ENDCHAR
STARTCHAR f_f_i
ENCODING -1
SWIDTH 925 0
DWIDTH 19 0
BBX 19 16 0 0
BITMAP
030F00
0DB180
19F180
19F000
387000
387000
FFFFC0
3871C0
3871C0
3871C0
3871C0
3871C0
3871C0
3871C0
3871C0
FFFBE0
ENDCHAR
STARTCHAR f_f_l
ENCODING -1
SWIDTH 944 0
DWIDTH 20 0
BBX 20 16 0 0
BITMAP
031FC0
0DB3C0
19F3C0
19F1C0
3871C0
3871C0
FFFFC0
3871C0
3871C0
3871C0
3871C0
3871C0
3871C0
3871C0
3871C0
FFFBF0
ENDCHAR
STARTCHAR f_i
ENCODING -1
SWIDTH 613 0
DWIDTH 13 0
BBX 13 16 0 0
BITMAP
07C0
08E0
18E0
3800
3800
3800
FFE0
38E0
38E0
38E0
38E0
38E0
38E0
38E0
38E0
FDF8
ENDCHAR
STARTCHAR f_l
ENCODING -1
SWIDTH 634 0
DWIDTH 13 0
BBX 13 16 0 0
BITMAP
07A0
19E0
19E0
3860
3860
3860
FFE0
3860
3860
3860
3860
3860
3860
3860
3860
FFF8
ENDCHAR
STARTCHAR zero.denominator
ENCODING -1
SWIDTH 419 0
DWIDTH 9 0
BBX 8 8 0 0
BITMAP
3E
63
63
E3
63
63
62
3C
ENDCHAR
STARTCHAR one.denominator
ENCODING -1
SWIDTH 279 0
DWIDTH 6 0
BBX 4 8 1 0
BITMAP
E0
60
60
60
60
60
60
F0
ENDCHAR
STARTCHAR two.denominator
ENCODING -1
SWIDTH 360 0
DWIDTH 8 0
BBX 7 9 0 0
BITMAP
10
6E
66
66
0C
18
20
7E
FE
ENDCHAR
STARTCHAR three.denominator
ENCODING -1
SWIDTH 346 0
DWIDTH 7 0
BBX 7 8 0 0
BITMAP
7C
6C
0C
18
0E
CE
CE
78
ENDCHAR
STARTCHAR four.denominator
ENCODING -1
SWIDTH 391 0
DWIDTH 8 0
BBX 8 9 0 0
BITMAP
0C
1C
2C
4C
4C
8D
7F
0D
1C
ENDCHAR
STARTCHAR five.denominator
ENCODING -1
SWIDTH 362 0
DWIDTH 8 0
BBX 7 9 0 0
BITMAP
7E
7C
40
B8
4E
06
46
E6
7C
ENDCHAR
STARTCHAR six.denominator
ENCODING -1
SWIDTH 352 0
DWIDTH 7 0
BBX 7 9 0 0
BITMAP
0C
30
20
60
7E
E6
66
66
3C
ENDCHAR
STARTCHAR seven.denominator
ENCODING -1
SWIDTH 351 0
DWIDTH 7 0
BBX 7 8 0 0
BITMAP
7E
7E
84
08
08
18
38
38
ENDCHAR
STARTCHAR eight.denominator
ENCODING -1
SWIDTH 356 0
DWIDTH 7 0
BBX 7 8 0 0
BITMAP
7C
66
66
28
74
E6
E6
7C
ENDCHAR
STARTCHAR nine.denominator
ENCODING -1
SWIDTH 352 0
DWIDTH 7 0
BBX 7 8 0 0
BITMAP
7C
E6
C6
E6
7E
0C
08
30
ENDCHAR
STARTCHAR zero.numerator
ENCODING -1
SWIDTH 419 0
DWIDTH 9 0
BBX 8 8 0 8
BITMAP
3C
62
63
63
E3
63
63
3E
ENDCHAR
STARTCHAR one.numerator
ENCODING -1
SWIDTH 279 0
DWIDTH 6 0
BBX 4 8 1 8
BITMAP
E0
60
60
60
60
60
60
F0
ENDCHAR
STARTCHAR two.numerator
ENCODING -1
SWIDTH 360 0
DWIDTH 8 0
BBX 7 9 0 7
BITMAP
3C
4E
66
66
0C
10
20
FE
FE
ENDCHAR
STARTCHAR three.numerator
ENCODING -1
SWIDTH 346 0
DWIDTH 7 0
BBX 7 8 0 8
BITMAP
7C
6C
0C
18
0C
4E
CE
FC
ENDCHAR
STARTCHAR four.numerator
ENCODING -1
SWIDTH 391 0
DWIDTH 8 0
BBX 8 8 0 8
BITMAP
0C
1C
2C
4C
4C
8D
7F
1C
ENDCHAR
STARTCHAR five.numerator
ENCODING -1
SWIDTH 362 0
DWIDTH 8 0
BBX 7 8 0 8
BITMAP
7E
7C
40
7C
0E
06
E6
7C
ENDCHAR
STARTCHAR six.numerator
ENCODING -1
SWIDTH 352 0
DWIDTH 7 0
BBX 6 8 1 8
BITMAP
38
60
C0
F8
CC
CC
CC
F8
ENDCHAR
STARTCHAR seven.numerator
ENCODING -1
SWIDTH 351 0
DWIDTH 7 0
BBX 7 8 0 8
BITMAP
7E
7E
84
08
08
18
18
38
ENDCHAR
STARTCHAR eight.numerator
ENCODING -1
SWIDTH 356 0
DWIDTH 7 0
BBX 7 8 0 8
BITMAP
3C
66
66
6C
38
66
E6
7E
ENDCHAR
STARTCHAR nine.numerator
ENCODING -1
SWIDTH 352 0
DWIDTH 7 0
BBX 7 8 0 8
BITMAP
38
64
C6
E6
6E
1C
0C
30
ENDCHAR
STARTCHAR uni030F.cap
ENCODING -1
SWIDTH 0 0
DWIDTH 0 0
BBX 10 3 -11 16
BITMAP
C600
F780
1DC0
ENDCHAR
STARTCHAR uni0311.cap
ENCODING -1
SWIDTH 0 0
DWIDTH 0 0
BBX 7 3 -7 16
BITMAP
78
FC
82
ENDCHAR
STARTCHAR caron.alt
ENCODING -1
SWIDTH 186 0
DWIDTH 4 0
BBX 4 6 0 10
BITMAP
60
F0
D0
10
20
40
ENDCHAR
STARTCHAR acute.case
ENCODING -1
SWIDTH 313 0
DWIDTH 7 0
BBX 5 3 1 16
BITMAP
18
78
E0
ENDCHAR
STARTCHAR breve.case
ENCODING -1
SWIDTH 353 0
DWIDTH 7 0
BBX 7 3 0 17
BITMAP
82
7E
3C
ENDCHAR
STARTCHAR caron.case
ENCODING -1
SWIDTH 424 0
DWIDTH 9 0
BBX 7 3 1 16
BITMAP
C6
7C
38
ENDCHAR
STARTCHAR circumflex.case
ENCODING -1
SWIDTH 424 0
DWIDTH 9 0
BBX 7 3 1 16
BITMAP
38
7C
C6
ENDCHAR
STARTCHAR dieresis.case
ENCODING -1
SWIDTH 342 0
DWIDTH 7 0
BBX 7 3 0 17
BITMAP
44
EE
66
ENDCHAR
STARTCHAR dotaccent.case
ENCODING -1
SWIDTH 157 0
DWIDTH 3 0
BBX 3 3 0 16
BITMAP
60
E0
60
ENDCHAR
STARTCHAR grave.case
ENCODING -1
SWIDTH 313 0
DWIDTH 7 0
BBX 6 3 0 16
BITMAP
E0
F0
1C
ENDCHAR
STARTCHAR hungarumlaut.case
ENCODING -1
SWIDTH 535 0
DWIDTH 11 0
BBX 10 3 1 16
BITMAP
18C0
7BC0
EE00
ENDCHAR
STARTCHAR macron.case
ENCODING -1
SWIDTH 360 0
DWIDTH 8 0
BBX 7 2 0 17
BITMAP
FE
FE
ENDCHAR
STARTCHAR ring.case
ENCODING -1
SWIDTH 213 0
DWIDTH 4 0
BBX 4 4 0 15
BITMAP
70
90
D0
70
ENDCHAR
STARTCHAR tilde.case
ENCODING -1
SWIDTH 412 0
DWIDTH 9 0
BBX 8 4 0 16
BITMAP
01
3F
7E
80
ENDCHAR
STARTCHAR uni03060301
ENCODING -1
SWIDTH 0 0
DWIDTH 0 0
BBX 6 7 -9 11
BITMAP
1C
78
C0
00
84
F8
78
ENDCHAR
STARTCHAR uni03060300
ENCODING -1
SWIDTH 0 0
DWIDTH 0 0
BBX 6 7 -9 11
BITMAP
80
E0
78
00
84
F8
78
ENDCHAR
STARTCHAR uni03060309
ENCODING -1
SWIDTH 0 0
DWIDTH 0 0
BBX 6 7 -9 11
BITMAP
70
90
D0
20
84
F8
78
ENDCHAR
STARTCHAR uni03060303
ENCODING -1
SWIDTH 0 0
DWIDTH 0 0
BBX 8 7 -10 11
BITMAP
71
FE
9C
00
42
7C
3C
ENDCHAR
STARTCHAR uni03020301
ENCODING -1
SWIDTH 0 0
DWIDTH 0 0
BBX 6 6 -9 11
BITMAP
08
3C
70
80
70
CC
ENDCHAR
STARTCHAR uni03020300
ENCODING -1
SWIDTH 0 0
DWIDTH 0 0
BBX 6 6 -9 11
BITMAP
C0
F0
18
00
70
CC
ENDCHAR
STARTCHAR uni03020309
ENCODING -1
SWIDTH 0 0
DWIDTH 0 0
BBX 8 7 -9 11
BITMAP
0E
1B
1B
02
04
70
CC
ENDCHAR
STARTCHAR uni03020303
ENCODING -1
SWIDTH 0 0
DWIDTH 0 0
BBX 8 7 -10 11
BITMAP
71
FE
9C
00
00
38
66
ENDCHAR
STARTCHAR NULL
ENCODING -1
SWIDTH 0 0
DWIDTH 0 0
BBX 1 1 0 0
BITMAP
00
ENDCHAR
STARTCHAR espaciador
ENCODING -1
SWIDTH 158 0
DWIDTH 3 0
BBX 3 26 0 -7
BITMAP
E0
E0
E0
E0
E0
E0
E0
E0
E0
E0
E0
E0
E0
E0
E0
E0
E0
E0
E0
E0
E0
E0
E0
E0
E0
E0
ENDCHAR
STARTCHAR dotbelow
ENCODING -1
SWIDTH 181 0
DWIDTH 4 0
BBX 4 3 0 -5
BITMAP
60
F0
E0
ENDCHAR
ENDFONT
